<svg xmlns="http://www.w3.org/2000/svg" viewBox="0 0 747.85 151.83"><defs><style>.a{fill:#adadad;}.b{fill:#ff3548;}.c,.d{fill:none;}.d{stroke:#333;stroke-miterlimit:10;}.e,.f{fill:#333;}.f{stroke:#fff;stroke-linecap:round;stroke-linejoin:round;stroke-width:0.25px;}</style></defs><path class="a" d="M695.53,102.13c0,9.77-2.57,13.4-2.57,13.4l7.14,6.26-4.38,5.14-6.7-6c-3.07,3.44-8.4,6-14.47,6-8.64,0-14.59-5.83-14.59-11.4,0-4.13,1.63-7.2,8.64-12.46-4.57-4.2-6.14-7.14-6.14-10.27,0-6.08,4.89-11.21,12-11.21s12,5.13,12,11.21c0,3.57-1.57,6-7.08,10.71l8.08,7.13s.94-1.37.94-8.51Zm-11.77,14.21-10-8.7c-5.26,4.51-6.33,5.45-6.33,7.45,0,3.13,3.57,5,7.08,5A13.46,13.46,0,0,0,683.76,116.34Zm-9.52-17.28c4.26-3.57,4.82-4.89,4.82-6.26a4.68,4.68,0,0,0-9.33,0C669.73,95,671.36,96.3,674.24,99.06Z"/><path class="b" d="M108.83,51.16S100.76,61.78,96.74,67.1C92.49,72.72,88.26,78.34,84,84a10.94,10.94,0,0,1-1.4,1.63,3.67,3.67,0,0,1-3.84.55,3.19,3.19,0,0,1-2.14-2.87,19.42,19.42,0,0,1,0-2.16q0-13.55,0-27.1V50.6c-1,1.22-1.64,1.92-2.21,2.67Q62.67,68.71,51,84.17c-1,1.29-2,2.29-3.75,2.23A3.48,3.48,0,0,1,44,81.47a9.46,9.46,0,0,1,1.14-1.83Q60.94,58.79,76.71,38A7,7,0,0,1,78,36.57a3.56,3.56,0,0,1,5.78,2.3A14.23,14.23,0,0,1,83.82,41V71.58c.76-.81,1.2-1.2,1.55-1.66l23.86-31.53a13.17,13.17,0,0,1,1.19-1.47,3.61,3.61,0,0,1,4-.89,3.32,3.32,0,0,1,2.27,3.08c.07.81.06,1.63.06,2.44V72.3c.92-1,1.49-1.56,2-2.19q13.06-15.9,26.11-31.82a11.12,11.12,0,0,1,1.43-1.62,3.66,3.66,0,0,1,6,2.27,12,12,0,0,1,0,1.9q0,27.77,0,55.54A21.47,21.47,0,0,1,110,101.12a20.13,20.13,0,0,1-.43-4c0-2.69,1.21-4.18,3.41-4.31a3.94,3.94,0,0,1,3.86,4,12.48,12.48,0,0,0,2.65,7.81,14.12,14.12,0,0,0,15.64,5.18,13.87,13.87,0,0,0,9.86-13.41q0-21.68,0-43.35V50.08c-1,1.05-1.61,1.65-2.15,2.32Q130,68,117.23,83.63a15,15,0,0,1-1.82,2,3.61,3.61,0,0,1-3.84.49,3.09,3.09,0,0,1-2-2.93c0-.72,0-1.44,0-2.17V51.31s0-1,0-1Z"/><rect class="c" x="9.01" y="9.59" width="728.71" height="134.31"/><line class="d" x1="608.84" y1="9.59" x2="608.84" y2="143.9"/><path class="e" d="M184.12,59.81,193,73.54l8.89-13.73h4.33v27.3h-4.68V68.78l-8.54,13-8.54-13V87.11h-4.69V59.81Z"/><path class="e" d="M226.14,75.06v12h-4.33V84.77a7.48,7.48,0,0,1-6.08,2.81c-3.47,0-6.67-2.26-6.67-6.2,0-3.55,3.24-6.13,7.25-6.13a9,9,0,0,1,5.15,1.33v-1c0-2.42-2.34-3.2-4-3.2A15,15,0,0,0,212,73.69l-1.53-3.86a18.85,18.85,0,0,1,7.3-1.67C223,68.16,226.14,70.85,226.14,75.06Zm-4.68,6.47V79.62a9.41,9.41,0,0,0-4.21-.93c-1.44,0-3.43.62-3.43,2.61s1.91,2.38,3.35,2.38A5.47,5.47,0,0,0,221.46,81.53Z"/><path class="e" d="M231.28,68.62,236,78.69l4.69-10.07h5l-9.79,19.43-9.79-19.43Z"/><path class="e" d="M267.86,59.81h4.68V78.53c0,5.73-3.55,9-9.32,9a9.57,9.57,0,0,1-8-4.57l3.43-2.88s1.72,3,4.57,3c3.58,0,4.64-2.34,4.64-4.44Z"/><path class="e" d="M292.09,75.06v12h-4.33V84.77a7.48,7.48,0,0,1-6.08,2.81c-3.47,0-6.67-2.26-6.67-6.2,0-3.55,3.23-6.13,7.25-6.13a9,9,0,0,1,5.15,1.33v-1c0-2.42-2.34-3.2-4-3.2a15.07,15.07,0,0,0-5.54,1.36l-1.52-3.86a18.85,18.85,0,0,1,7.3-1.67C289,68.16,292.09,70.85,292.09,75.06Zm-4.68,6.47V79.62a9.41,9.41,0,0,0-4.21-.93c-1.44,0-3.43.62-3.43,2.61s1.91,2.38,3.35,2.38A5.47,5.47,0,0,0,287.41,81.53Z"/><path class="e" d="M297.22,68.62l4.68,10.07,4.68-10.07h5l-9.79,19.43L292,68.62Z"/><path class="b" d="M332.6,75.72c-4-1.4-8.55-3.59-8.55-8.66,0-3.86,3.44-7.72,8.94-7.72a11.74,11.74,0,0,1,8.89,4.33l-3.24,3.2s-2.26-3.08-5.65-3.08c-2.34,0-4.18,1.44-4.18,3.27,0,2.38,2.15,3.12,5.89,4.53,4.17,1.56,7.65,3.43,7.65,8.38s-4.37,7.61-9.52,7.61a11.91,11.91,0,0,1-10-5.58l3.51-3s2.34,4.09,6.47,4.09c2.34,0,4.76-.93,4.76-3.16S335.83,76.85,332.6,75.72Z"/><path class="b" d="M363.42,77.87a9.87,9.87,0,1,1-9.87-9.71A9.72,9.72,0,0,1,363.42,77.87Zm-4.76,0a5.11,5.11,0,1,0-5.11,5.34A5.06,5.06,0,0,0,358.66,77.87Z"/><path class="b" d="M365.38,80.6v-12h4.68V79.31c0,2.73,1.29,3.9,3.67,3.9A4.53,4.53,0,0,0,377.39,81V68.62h4.68V87.11h-4.36V84.42a6.67,6.67,0,0,1-12.33-3.82Z"/><path class="b" d="M383.5,68.62h3.63v-5.5h4.68v5.5h5.58v4.22h-5.58v7.44c0,2.27,1.17,2.93,2.42,2.93a3.73,3.73,0,0,0,1.95-.66l1.72,3.82a8.44,8.44,0,0,1-4.45,1.21A6.19,6.19,0,0,1,387.13,81V72.84H383.5Z"/><path class="b" d="M402.14,59.57a3.09,3.09,0,1,1-3.08,3.09A3.06,3.06,0,0,1,402.14,59.57Zm-2.34,9.05h4.68V87.11H399.8Z"/><path class="b" d="M425.32,77.79c0,.35,0,1,0,1.75h-13.8a5.28,5.28,0,0,0,5.19,3.75,7.46,7.46,0,0,0,5.07-1.87l2.34,3.51a11.86,11.86,0,0,1-7.41,2.65,9.72,9.72,0,0,1-9.95-9.71c0-5.42,3.94-9.71,9.28-9.71A9.29,9.29,0,0,1,425.32,77.79Zm-4.68-1.64c-.07-1.6-1.56-3.74-4.64-3.74a4.24,4.24,0,0,0-4.52,3.74Z"/><path class="b" d="M444.11,75.14v12h-4.68V76.31c0-2.66-1.63-3.79-3.66-3.79a4.57,4.57,0,0,0-3.67,2.38V87.11h-4.68V68.62h4.37v2.69a6.39,6.39,0,0,1,5.54-3.15A6.61,6.61,0,0,1,444.11,75.14Z"/><path class="b" d="M467.36,75.72c-4-1.4-8.54-3.59-8.54-8.66,0-3.86,3.43-7.72,8.93-7.72a11.74,11.74,0,0,1,8.89,4.33l-3.24,3.2s-2.26-3.08-5.65-3.08c-2.34,0-4.18,1.44-4.18,3.27,0,2.38,2.15,3.12,5.89,4.53,4.18,1.56,7.65,3.43,7.65,8.38s-4.37,7.61-9.52,7.61a11.93,11.93,0,0,1-10-5.58l3.51-3s2.34,4.09,6.47,4.09c2.34,0,4.76-.93,4.76-3.16S470.59,76.85,467.36,75.72Z"/><path class="b" d="M493,81,496,84.07a10,10,0,0,1-7.65,3.51,9.71,9.71,0,1,1,0-19.42A9.91,9.91,0,0,1,496,71.59l-3.24,2.88a5.75,5.75,0,0,0-4.33-2,5.35,5.35,0,0,0,0,10.69A5.48,5.48,0,0,0,493,81Z"/><path class="b" d="M515.64,77.87a9.87,9.87,0,1,1-9.87-9.71A9.72,9.72,0,0,1,515.64,77.87Zm-4.76,0a5.11,5.11,0,1,0-5.11,5.34A5.06,5.06,0,0,0,510.88,77.87Z"/><path class="b" d="M518,57.62h4.68V87.11H518Z"/><path class="b" d="M542.22,75.06v12h-4.33V84.77a7.48,7.48,0,0,1-6.08,2.81c-3.47,0-6.67-2.26-6.67-6.2,0-3.55,3.23-6.13,7.25-6.13a9,9,0,0,1,5.15,1.33v-1c0-2.42-2.34-3.2-4-3.2A15.07,15.07,0,0,0,528,73.69l-1.52-3.86a18.85,18.85,0,0,1,7.3-1.67C539.1,68.16,542.22,70.85,542.22,75.06Zm-4.68,6.47V79.62a9.41,9.41,0,0,0-4.21-.93c-1.44,0-3.43.62-3.43,2.61s1.91,2.38,3.35,2.38A5.47,5.47,0,0,0,537.54,81.53Z"/><path class="b" d="M548,59.57a3.09,3.09,0,1,1-3.08,3.09A3.07,3.07,0,0,1,548,59.57Zm-2.34,9.05h4.69V87.11h-4.69Z"/><path class="b" d="M566.58,68.74,565,73a5.39,5.39,0,0,0-2.23-.43,4.89,4.89,0,0,0-4.13,2.5V87.11h-4.68V68.62h4.44v2.69a6,6,0,0,1,5-3.15A10.11,10.11,0,0,1,566.58,68.74Z"/><path class="b" d="M584.25,77.79c0,.35,0,1,0,1.75H570.4a5.3,5.3,0,0,0,5.19,3.75,7.43,7.43,0,0,0,5.07-1.87L583,84.93a11.83,11.83,0,0,1-7.41,2.65,9.72,9.72,0,0,1-9.94-9.71c0-5.42,3.94-9.71,9.28-9.71A9.29,9.29,0,0,1,584.25,77.79Zm-4.68-1.64c-.08-1.6-1.56-3.74-4.64-3.74a4.26,4.26,0,0,0-4.53,3.74Z"/><path class="f" d="M642.55,38.53h2.07l4.62,11.9h-2l-1.09-2.82h-5L640,50.43h-2.06Zm-.75,7.21h3.57l-1.79-4.64Z"/><path class="f" d="M652.25,42.37v1.06a2.94,2.94,0,0,1,2.44-1.26,4.24,4.24,0,0,1,0,8.46,2.87,2.87,0,0,1-2.28-1v4.74h-2v-12Zm.16,5.24a2.24,2.24,0,0,0,1.92,1.12,2.33,2.33,0,0,0,0-4.66,2.24,2.24,0,0,0-1.92,1.12Z"/><path class="f" d="M662,42.37v1.06a2.91,2.91,0,0,1,2.43-1.26,4.24,4.24,0,0,1,0,8.46,2.87,2.87,0,0,1-2.28-1v4.74h-2v-12Zm.15,5.24a2.24,2.24,0,0,0,1.92,1.12,2.33,2.33,0,0,0,0-4.66,2.24,2.24,0,0,0-1.92,1.12Z"/><path class="f" d="M675.37,42.42l-.71,1.84a2.29,2.29,0,0,0-1-.19,2.13,2.13,0,0,0-1.8,1.09v5.27h-2V42.37h1.94v1.17A2.63,2.63,0,0,1,674,42.17,4.43,4.43,0,0,1,675.37,42.42Z"/><path class="f" d="M683.72,46.37c0,.15,0,.46,0,.76h-6A2.28,2.28,0,0,0,680,48.76a3.26,3.26,0,0,0,2.21-.81l1,1.53A5.19,5.19,0,0,1,680,50.63a4.24,4.24,0,0,1-4.34-4.23,4.06,4.06,0,1,1,8.11,0Zm-2-.72a2,2,0,0,0-4,0Z"/><path class="f" d="M692.49,45.21v5.22h-2V45.72a1.48,1.48,0,0,0-1.59-1.65,2,2,0,0,0-1.6,1v5.32h-2V42.37h1.9v1.17a2.8,2.8,0,0,1,2.42-1.37A2.88,2.88,0,0,1,692.49,45.21Z"/><path class="f" d="M702.23,50.43h-1.88v-1a2.79,2.79,0,0,1-2.43,1.25,4.24,4.24,0,0,1,0-8.46,2.85,2.85,0,0,1,2.27,1V37.58h2Zm-2-5.24a2.22,2.22,0,0,0-1.92-1.12,2.33,2.33,0,0,0,0,4.66,2.22,2.22,0,0,0,1.92-1.12Z"/><path class="f" d="M710,42.42l-.72,1.84a2.29,2.29,0,0,0-1-.19,2.13,2.13,0,0,0-1.8,1.09v5.27h-2V42.37h1.94v1.17a2.63,2.63,0,0,1,2.19-1.37A4.53,4.53,0,0,1,710,42.42Z"/><path class="f" d="M718.38,46.37c0,.15,0,.46,0,.76h-6a2.28,2.28,0,0,0,2.26,1.63,3.26,3.26,0,0,0,2.21-.81l1,1.53a5.16,5.16,0,0,1-3.23,1.15,4.23,4.23,0,0,1-4.33-4.23,4.05,4.05,0,1,1,8.1,0Zm-2-.72a2,2,0,0,0-4,0Z"/><path class="f" d="M647.61,62.77v1.06a2.94,2.94,0,0,1,2.44-1.26,4.24,4.24,0,0,1,0,8.46,2.87,2.87,0,0,1-2.28-1v4.74h-2v-12Zm.16,5.24a2.24,2.24,0,0,0,1.92,1.12,2.33,2.33,0,0,0,0-4.66,2.24,2.24,0,0,0-1.92,1.12Z"/><path class="f" d="M663.53,66.8a4.31,4.31,0,1,1-4.3-4.23A4.24,4.24,0,0,1,663.53,66.8Zm-2.08,0a2.23,2.23,0,1,0-2.22,2.33A2.2,2.2,0,0,0,661.45,66.8Z"/><path class="f" d="M665,68V62.77h2v4.66c0,1.19.56,1.7,1.6,1.7a2,2,0,0,0,1.6-1V62.77h2v8.06h-1.91V69.66A2.91,2.91,0,0,1,665,68Z"/><path class="f" d="M679.86,62.82l-.71,1.84a2.35,2.35,0,0,0-1-.19,2.13,2.13,0,0,0-1.8,1.09v5.27h-2V62.77h1.94v1.17a2.61,2.61,0,0,1,2.19-1.37A4.43,4.43,0,0,1,679.86,62.82Z"/><path class="f" d="M686.54,68.09A3.79,3.79,0,0,0,689,69.25c.83,0,1.52-.24,1.52-.73s-.37-.63-1.59-.89c-1.6-.34-3-1-3-2.55,0-1.25,1.26-2.51,3.47-2.51a5.18,5.18,0,0,1,3,1l-1,1.5a3.75,3.75,0,0,0-2-.7c-.76,0-1.46.27-1.46.77s.54.61,1.9.9c1.6.34,2.74.87,2.74,2.53,0,1.38-1.46,2.48-3.52,2.48a5,5,0,0,1-3.64-1.46Z"/><path class="f" d="M702.18,66.8a4.3,4.3,0,1,1-4.3-4.23A4.23,4.23,0,0,1,702.18,66.8Zm-2.07,0a2.23,2.23,0,1,0-2.23,2.33A2.21,2.21,0,0,0,700.11,66.8Z"/><path class="f" d="M711,65.61v5.22h-2V66.12a1.48,1.48,0,0,0-1.59-1.65,2,2,0,0,0-1.6,1v5.32h-2V62.77h1.9v1.17A2.8,2.8,0,0,1,708,62.57,2.88,2.88,0,0,1,711,65.61Z"/><path class="f" d="M636.85,83.17v1.06A2.93,2.93,0,0,1,639.28,83a4.24,4.24,0,0,1,0,8.46,2.86,2.86,0,0,1-2.27-1v4.74h-2v-12Zm.16,5.24a2.22,2.22,0,0,0,1.92,1.12,2.33,2.33,0,0,0,0-4.66A2.22,2.22,0,0,0,637,86Z"/><path class="f" d="M650.23,83.22l-.71,1.84a2.35,2.35,0,0,0-1-.19,2.13,2.13,0,0,0-1.8,1.09v5.27h-2V83.17h1.94v1.17A2.61,2.61,0,0,1,648.84,83,4.43,4.43,0,0,1,650.23,83.22Z"/><path class="f" d="M659.07,87.2a4.3,4.3,0,1,1-4.3-4.23A4.23,4.23,0,0,1,659.07,87.2Zm-2.07,0a2.23,2.23,0,1,0-2.23,2.33A2.21,2.21,0,0,0,657,87.2Z"/><path class="f" d="M662.45,83.17v1.06A2.94,2.94,0,0,1,664.89,83a4.24,4.24,0,0,1,0,8.46,2.87,2.87,0,0,1-2.28-1v4.74h-2v-12Zm.16,5.24a2.24,2.24,0,0,0,1.92,1.12,2.33,2.33,0,0,0,0-4.66A2.24,2.24,0,0,0,662.61,86Z"/><path class="f" d="M675.83,83.22l-.71,1.84a2.29,2.29,0,0,0-1-.19,2.13,2.13,0,0,0-1.8,1.09v5.27h-2V83.17h1.94v1.17A2.61,2.61,0,0,1,674.44,83,4.43,4.43,0,0,1,675.83,83.22Z"/><path class="f" d="M684.18,87.17c0,.15,0,.46,0,.76h-6a2.28,2.28,0,0,0,2.26,1.63,3.26,3.26,0,0,0,2.21-.81l1,1.53a5.19,5.19,0,0,1-3.23,1.15,4.24,4.24,0,0,1-4.34-4.23,4.06,4.06,0,1,1,8.11,0Zm-2-.72a1.87,1.87,0,0,0-2-1.63,1.85,1.85,0,0,0-2,1.63Z"/><path class="f" d="M690.91,78.38h2V84a2.88,2.88,0,0,1,2.28-1,4.24,4.24,0,0,1,0,8.46,2.79,2.79,0,0,1-2.43-1.25v1h-1.89Zm2,10a2.24,2.24,0,0,0,1.92,1.12,2.33,2.33,0,0,0,0-4.66A2.24,2.24,0,0,0,693,86Z"/><path class="f" d="M702,79.23a1.34,1.34,0,1,1-1.35,1.34A1.33,1.33,0,0,1,702,79.23Zm-1,3.94h2v8.06h-2Z"/><path class="f" d="M712.94,87.17c0,.15,0,.46,0,.76h-6a2.29,2.29,0,0,0,2.26,1.63,3.26,3.26,0,0,0,2.21-.81l1,1.53a5.19,5.19,0,0,1-3.23,1.15,4.24,4.24,0,0,1-4.34-4.23,4.06,4.06,0,1,1,8.11,0Zm-2-.72a2,2,0,0,0-4,0Z"/><path class="f" d="M721.71,86v5.22h-2V86.52a1.48,1.48,0,0,0-1.59-1.65,2,2,0,0,0-1.6,1v5.32h-2V83.17h1.9v1.17A2.8,2.8,0,0,1,718.76,83,2.88,2.88,0,0,1,721.71,86Z"/><path class="f" d="M635,112.94l1.34,1.36a4.34,4.34,0,0,1-3.33,1.53,4.23,4.23,0,1,1,0-8.46,4.33,4.33,0,0,1,3.3,1.49l-1.41,1.26a2.53,2.53,0,0,0-1.89-.85,2.33,2.33,0,0,0,0,4.66A2.37,2.37,0,0,0,635,112.94Z"/><path class="f" d="M645.19,111.57c0,.15,0,.46,0,.76h-6a2.29,2.29,0,0,0,2.26,1.63,3.26,3.26,0,0,0,2.21-.81l1,1.53a5.19,5.19,0,0,1-3.23,1.15,4.24,4.24,0,0,1-4.34-4.23,4.06,4.06,0,1,1,8.11,0Zm-2-.72a2,2,0,0,0-4,0Z"/><path class="f" d="M646.93,102.78h2v12.85h-2Z"/><path class="f" d="M651.24,112.79v-5.22h2v4.66c0,1.19.57,1.7,1.6,1.7a2,2,0,0,0,1.6-1v-5.37h2v8.06h-1.9v-1.17a2.91,2.91,0,0,1-5.38-1.67Z"/><path class="f" d="M661.9,103.63a1.34,1.34,0,1,1-1.34,1.34A1.34,1.34,0,0,1,661.9,103.63Zm-1,3.94h2v8.06h-2Z"/><path class="f" d="M678,115.63H676.1v-1a2.79,2.79,0,0,1-2.43,1.25,4.24,4.24,0,0,1,0-8.46,2.85,2.85,0,0,1,2.27,1v-5.64h2Zm-2-5.24a2.22,2.22,0,0,0-1.92-1.12,2.33,2.33,0,0,0,0,4.66,2.22,2.22,0,0,0,1.92-1.12Z"/><path class="f" d="M679.92,103.73h1.8v4.18h-1.8Z"/><path class="f" d="M690.49,110.38v5.25h-1.88v-1a3.26,3.26,0,0,1-2.65,1.22,2.72,2.72,0,0,1-2.91-2.7,2.89,2.89,0,0,1,3.16-2.67,3.94,3.94,0,0,1,2.25.58v-.46c0-1-1-1.39-1.74-1.39a6.57,6.57,0,0,0-2.41.59l-.66-1.68a8.12,8.12,0,0,1,3.17-.73C689.14,107.37,690.49,108.54,690.49,110.38Zm-2,2.82v-.83a4.11,4.11,0,0,0-1.84-.41c-.63,0-1.5.27-1.5,1.14s.84,1,1.47,1A2.4,2.4,0,0,0,688.46,113.2Z"/><path class="f" d="M692.54,112.79v-5.22h2v4.66c0,1.19.56,1.7,1.59,1.7a2,2,0,0,0,1.6-1v-5.37h2v8.06h-1.9v-1.17a2.91,2.91,0,0,1-5.37-1.67Z"/><path class="f" d="M701.21,107.57h1.58v-2.4h2v2.4h2.43v1.84h-2.43v3.24c0,1,.51,1.28,1,1.28a1.61,1.61,0,0,0,.85-.29l.75,1.67a3.73,3.73,0,0,1-1.94.52,2.7,2.7,0,0,1-2.75-2.85v-3.57h-1.58Z"/><path class="f" d="M714.45,107.62l-.72,1.84a2.29,2.29,0,0,0-1-.19,2.13,2.13,0,0,0-1.8,1.09v5.27h-2v-8.06h1.94v1.17a2.63,2.63,0,0,1,2.19-1.37A4.53,4.53,0,0,1,714.45,107.62Z"/><path class="f" d="M715.5,112.79v-5.22h2v4.66c0,1.19.56,1.7,1.6,1.7a2,2,0,0,0,1.6-1v-5.37h2v8.06h-1.91v-1.17a2.91,2.91,0,0,1-5.37-1.67Z"/><path class="f" d="M726.16,103.63a1.34,1.34,0,1,1-1.34,1.34A1.33,1.33,0,0,1,726.16,103.63Zm-1,3.94h2v8.06h-2Z"/><rect class="c" x="608.84" width="139.01" height="151.83"/><rect class="c" x="152.36" width="456.48" height="151.83"/></svg>