<svg xmlns="http://www.w3.org/2000/svg" viewBox="0 0 747.85 151.83"><defs><style>.a{fill:#ff3548;}.b,.c{fill:none;}.c{stroke:#333;stroke-miterlimit:10;}.d{fill:#333;}</style></defs><path class="a" d="M108.83,51.16S100.76,61.78,96.74,67.1C92.49,72.72,88.26,78.34,84,84a10.94,10.94,0,0,1-1.4,1.63,3.67,3.67,0,0,1-3.84.55,3.19,3.19,0,0,1-2.14-2.87,19.42,19.42,0,0,1,0-2.16q0-13.55,0-27.1V50.6c-1,1.22-1.64,1.92-2.21,2.67Q62.67,68.71,51,84.17c-1,1.29-2,2.29-3.75,2.23A3.48,3.48,0,0,1,44,81.47a9.46,9.46,0,0,1,1.14-1.83Q60.94,58.79,76.71,38A7,7,0,0,1,78,36.57a3.56,3.56,0,0,1,5.78,2.3A14.23,14.23,0,0,1,83.82,41V71.58c.76-.81,1.2-1.2,1.55-1.66l23.86-31.53a13.17,13.17,0,0,1,1.19-1.47,3.61,3.61,0,0,1,4-.89,3.32,3.32,0,0,1,2.27,3.08c.07.81.06,1.63.06,2.44V72.3c.92-1,1.49-1.56,2-2.19q13.06-15.9,26.11-31.82a11.12,11.12,0,0,1,1.43-1.62,3.66,3.66,0,0,1,6,2.27,12,12,0,0,1,0,1.9q0,27.77,0,55.54A21.47,21.47,0,0,1,110,101.12a20.13,20.13,0,0,1-.43-4c0-2.69,1.21-4.18,3.41-4.31a3.94,3.94,0,0,1,3.86,4,12.48,12.48,0,0,0,2.65,7.81,14.12,14.12,0,0,0,15.64,5.18,13.87,13.87,0,0,0,9.86-13.41q0-21.68,0-43.35V50.08c-1,1.05-1.61,1.65-2.15,2.32Q130,68,117.23,83.63a15,15,0,0,1-1.82,2,3.61,3.61,0,0,1-3.84.49,3.09,3.09,0,0,1-2-2.93c0-.72,0-1.44,0-2.17V51.31s0-1,0-1Z"/><rect class="b" x="9.01" y="9.59" width="728.71" height="134.31"/><line class="c" x1="608.84" y1="9.59" x2="608.84" y2="143.9"/><path class="d" d="M648.93,47.49h4.61v1h-4.61v1.4c1.08,1.55,3.89,5.9,4.5,7.06l-.87.82c-.57-1.22-2.41-4.35-3.63-6.33V67.72h-1.08V51.09c-1.26,4.29-3.17,9-5,11.59a4.67,4.67,0,0,0-.86-1c2.05-2.88,4.35-8.5,5.43-13.14h-5.22v-1h5.62V35.4h1.08Zm-3.6-1.9A33.65,33.65,0,0,0,643,38l.93-.22a35.51,35.51,0,0,1,2.34,7.56Zm4.82-.08A62.4,62.4,0,0,0,653,37.67l1.12.39a74.34,74.34,0,0,1-3.1,7.81ZM674.88,47v1H655.12V47h9.14V43.68h-7.2v-1h7.2v-3h-8.1v-1h8.1V35.33h1v3.24H674v1h-8.67v3h7.84v1h-7.84V47Zm-2.7,19c0,.82-.18,1.18-.83,1.4a18.09,18.09,0,0,1-4.17.22,4.23,4.23,0,0,0-.43-1c1.9,0,3.38,0,3.81,0s.58-.14.58-.54V61.42H658.86v6.23h-1.08V51h14.4ZM658.86,52v3.63h12.28V52Zm12.28,8.35V56.71H658.86v3.67Z"/><path class="d" d="M713.76,64.66v1H682.62v-1h10.84V35.72h1V64.66h7.38V35.83h1V64.66Zm-24.51-8.31a78.85,78.85,0,0,0-5.47-11.77l1-.29a89.63,89.63,0,0,1,5.58,11.59Zm23.36-11.48A107.32,107.32,0,0,1,706,56.71l-.86-.51a91,91,0,0,0,6.51-11.8Z"/><path class="d" d="M648.07,93.75a29,29,0,0,0-5.8-4L643,89a32.48,32.48,0,0,1,5.79,3.89Zm-4.76,15.88A105.87,105.87,0,0,0,648.6,98l.87.68a124.51,124.51,0,0,1-5.19,11.67ZM645,79.1A33.37,33.37,0,0,1,650.55,83l-.79.75a30.73,30.73,0,0,0-5.58-4Zm12,17.35h1v3.06c0,3.53-1,7.78-6.88,10.94a3.71,3.71,0,0,0-.82-.71c5.76-3.06,6.66-7.06,6.66-10.23Zm12.13-12.38a14.52,14.52,0,0,1-5.08,7.7,27.71,27.71,0,0,0,11.23,3.71,4.8,4.8,0,0,0-.68,1,29.46,29.46,0,0,1-11.45-4.07c-3,2-6.77,3.31-11.12,4.25a6.67,6.67,0,0,0-.76-1,27.53,27.53,0,0,0,11-3.85,16.68,16.68,0,0,1-5.79-7.74h-4.58V83h10.62a29.32,29.32,0,0,0-2-4.25l1-.29A20.6,20.6,0,0,1,663.61,83h10.95v1Zm-11.52,0a16.14,16.14,0,0,0,5.54,7.09,13.83,13.83,0,0,0,4.79-7.09Zm10.29,12.31h1v14.29h-1Z"/><path class="d" d="M696.84,98.11V108.8H687V111h-1V99.4a21.61,21.61,0,0,1-3.7,5.19,4.76,4.76,0,0,0-.83-.87,22.22,22.22,0,0,0,5.76-10.29h-3.57v-1h3.85a45.41,45.41,0,0,0,1-4.9h-6.37V86.41h6.55c.21-1.58.39-3.2.57-4.9h-5.43v-1h12.63v5.94H699v1.08h-2.52v5.94h-8.2a29.72,29.72,0,0,1-1.7,4.68Zm-9.82,1v8.57h8.74V99.15Zm2.59-11.66c-.29,1.73-.65,3.35-1.05,4.9h6.88v-4.9Zm.75-6c-.18,1.7-.36,3.35-.61,4.9h5.69v-4.9ZM714.59,102H707v9h-1v-9h-7.46v-1H706v-6.7h-6V93.14h6V86.66H699.4v-1h14.33v1H707v6.48h6.08v1.08H707v6.7h7.56ZM703,85a21.89,21.89,0,0,0-2.7-5.94l.87-.29A19.54,19.54,0,0,1,704,84.65Zm9.86-6.23c-1,2.06-2.19,4.65-3.23,6.34l-.9-.32a41.7,41.7,0,0,0,3.09-6.38Z"/><rect class="b" x="608.84" width="139.01" height="151.83"/><path class="d" d="M277.29,66.19a41.8,41.8,0,0,1-12.24,15.54c3.73,6.06,8.46,9.66,13.74,9.6,2.28,0,3.06-2.11,3.42-8.7a4,4,0,0,0,1.68.84c-.48,7.32-1.56,9.65-5.16,9.65-5.88,0-11.1-3.9-15.06-10.37-6,4.38-13.13,7.5-21.05,9.89a9.79,9.79,0,0,0-1.26-1.56,61.15,61.15,0,0,0,21.47-9.83,58.83,58.83,0,0,1-6-18.54h-19.2v6.36c0,7-1.14,16.92-7,24.18A4.37,4.37,0,0,0,229.24,92c5.64-7,6.66-16.25,6.66-23V61h20.7c-.36-2.76-.61-5.7-.73-8.64h1.81A66.21,66.21,0,0,0,258.4,61h24.65v1.74H258.64a54.83,54.83,0,0,0,5.57,17.46,39.15,39.15,0,0,0,11.4-14.58Zm-32-19.2H230.62V45.25h14.64V39.07h1.68v6.18h18.65V39.07h1.74v6.18h15.48V47H267.33v6.12h-1.74V47H246.94v6.12h-1.68Zm33.53,13.26a74.1,74.1,0,0,0-8.82-7.2l1.2-1A64.64,64.64,0,0,1,280,59Z"/><path class="d" d="M330.29,39.37A12.67,12.67,0,0,1,329,41.23c5.94,7.38,17.34,15.06,26.58,18.3a11.18,11.18,0,0,0-1.38,1.56c-8.88-3.48-20-11-26.28-18.54-6.3,7.86-16.14,14.82-26.16,18.6a10.7,10.7,0,0,0-1.32-1.56c11.22-4,22.5-12.06,28.26-21Zm-1.56,49.79h25.14v1.75h-51.6V89.16H327V71.29h-22.2V69.55H327V59.41h-13.8V57.67h29.88v1.74H328.73V69.55h22.86v1.74H328.73ZM312.59,74.47a56.8,56.8,0,0,1,6,11.64l-1.68.66A52.77,52.77,0,0,0,311,75Zm23.46,11.7a77.34,77.34,0,0,0,7.2-11.88l1.68.84A105.3,105.3,0,0,1,337.43,87Z"/><path class="a" d="M420.17,77.23,413,78.73v14.1h-1.74V79.15c-4.56,1-8.94,1.92-12.54,2.7L398.21,80c3.48-.66,8.1-1.62,13.08-2.7V67h-7a8,8,0,0,0-4,.72v0l-.06.06v-.3a4.71,4.71,0,0,0-.6-1.56c.78-.12,1.62-2.34,2.58-5A124.58,124.58,0,0,0,406,48.55h-7.8V46.81h8.16c.6-2.52,1.14-5.1,1.5-7.62l1.8.42c-.48,2.4-.9,4.8-1.5,7.2h11v1.74h-11.4a119.35,119.35,0,0,1-5.22,16.68h8.76v-10H413v10h6.24V67H413v10l7-1.44Zm17.52-27.42v7h11.88V90.12c0,1.39-.3,2-1.32,2.35s-3,.36-6,.36a7.48,7.48,0,0,0-.78-1.81c2.64.12,4.86.06,5.52.06s.84-.23.84-.9V79.57H437.69V92.7H436V79.57H425.87V93h-1.74V56.77H436v-7H422V48.07h14v-9h1.74v9h14.46v1.74Zm-11.82,8.7v8.58H436V58.51ZM436,77.83v-9H425.87v9Zm1.74-19.32v8.58h10.14V58.51Zm10.14,19.32v-9H437.69v9Zm1-31.74a91.36,91.36,0,0,0-8-5.52l1.14-1a86.4,86.4,0,0,1,8.1,5.34Z"/><path class="a" d="M521.46,74.35h-14V89.7c0,1.69-.48,2.34-1.92,2.65s-4.68.35-10.68.35a7.92,7.92,0,0,0-.78-1.62c5.16.12,9.06.06,10.14,0s1.5-.36,1.5-1.31V74.35H469V72.61h36.72V66.73h1.74v5.88h14ZM484.26,65c-8,0-10.32-.78-10.32-5.1V42.25h40.5V54.49H475.68V60c0,2.52,1.26,3.3,8.1,3.3h27.48c5.1,0,5.88-1.14,6.3-6.84a6.16,6.16,0,0,0,1.86.78c-.54,6.24-1.62,7.8-8.28,7.8Zm-8.58-21v8.76h37V44Zm4.68,31.44c3.66,3.54,7.62,8.4,9.36,11.7l-1.5,1c-1.62-3.29-5.58-8.33-9.24-11.87Z"/><rect class="b" x="152.36" width="456.48" height="151.83"/></svg>