<svg xmlns="http://www.w3.org/2000/svg" viewBox="0 0 747.85 151.83"><defs><style>.a{fill:#333;}.b{fill:#ff3548;}.c,.d{fill:none;}.d{stroke:#fff;stroke-miterlimit:10;}.e{fill:#fff;}</style></defs><rect class="a" width="747.85" height="151.83"/><path class="b" d="M108.83,51.08s-8.07,10.63-12.09,16C92.49,72.64,88.26,78.27,84,83.88a11,11,0,0,1-1.4,1.64,3.71,3.71,0,0,1-3.84.55,3.21,3.21,0,0,1-2.14-2.87,19.65,19.65,0,0,1,0-2.17q0-13.55,0-27.09V50.53c-1,1.21-1.64,1.91-2.21,2.66Q62.67,68.63,51,84.09c-1,1.3-2,2.29-3.75,2.23A3.48,3.48,0,0,1,44,81.39a9.1,9.1,0,0,1,1.14-1.82Q60.94,58.72,76.71,37.88A7.32,7.32,0,0,1,78,36.49a3.56,3.56,0,0,1,5.78,2.31A14.1,14.1,0,0,1,83.82,41V71.5c.76-.81,1.2-1.2,1.55-1.66q11.94-15.75,23.86-31.53a15.28,15.28,0,0,1,1.19-1.47,3.61,3.61,0,0,1,4-.89A3.35,3.35,0,0,1,116.69,39c.07.8.06,1.62.06,2.43V72.22c.92-1,1.49-1.56,2-2.18l26.11-31.83a11.12,11.12,0,0,1,1.43-1.62,3.66,3.66,0,0,1,6,2.28,11.88,11.88,0,0,1,0,1.89q0,27.77,0,55.54A21.47,21.47,0,0,1,110,101a20.11,20.11,0,0,1-.43-4c0-2.7,1.21-4.18,3.41-4.32a4,4,0,0,1,3.86,4,12.44,12.44,0,0,0,2.65,7.8,14.11,14.11,0,0,0,15.64,5.19,13.88,13.88,0,0,0,9.86-13.42q0-21.67,0-43.35V50c-1,1.06-1.61,1.66-2.15,2.32Q130,67.94,117.23,83.55a15.06,15.06,0,0,1-1.82,2,3.65,3.65,0,0,1-3.84.49,3.1,3.1,0,0,1-2-2.94c0-.72,0-1.44,0-2.16V51.24c0-.05,0-1.05,0-1.05Z"/><polyline class="c" points="738.27 9.51 738.27 143.82 9.57 143.82 9.57 9.51"/><line class="d" x1="608.84" y1="11.11" x2="608.84" y2="145.42"/><path class="e" d="M648.93,49.84h4.61v1h-4.61v1.4c1.08,1.55,3.89,5.9,4.5,7.06l-.87.82c-.57-1.22-2.41-4.35-3.63-6.33V70.07h-1.08V53.44c-1.26,4.29-3.17,9-5,11.59a4.67,4.67,0,0,0-.86-1c2.05-2.88,4.35-8.5,5.43-13.14h-5.22v-1h5.62V37.75h1.08Zm-3.6-1.9a33.65,33.65,0,0,0-2.3-7.6l.93-.22a35.51,35.51,0,0,1,2.34,7.56Zm4.82-.08A62.4,62.4,0,0,0,653,40l1.12.39a74.34,74.34,0,0,1-3.1,7.81Zm24.73,1.51v1.05H655.12V49.37h9.14V46h-7.2V45h7.2V42h-8.1v-1h8.1V37.68h1v3.24H674v1h-8.67v3h7.84V46h-7.84v3.34Zm-2.7,19.05c0,.82-.18,1.18-.83,1.4a18.09,18.09,0,0,1-4.17.22,4.23,4.23,0,0,0-.43-1.05c1.9,0,3.38,0,3.81,0s.58-.14.58-.54V63.77H658.86V70h-1.08V53.33h14.4Zm-13.32-14V58h12.28V54.38Zm12.28,8.35V59.06H658.86v3.67Z"/><path class="e" d="M713.76,67v1H682.62V67h10.84V38.07h1V67h7.38V38.18h1V67ZM689.25,58.7a78.85,78.85,0,0,0-5.47-11.77l1-.29a89.63,89.63,0,0,1,5.58,11.59Zm23.36-11.48A107.32,107.32,0,0,1,706,59.06l-.86-.51a91,91,0,0,0,6.51-11.8Z"/><path class="e" d="M648.07,96.1a29,29,0,0,0-5.8-4l.76-.72a32.48,32.48,0,0,1,5.79,3.89ZM643.31,112a105.87,105.87,0,0,0,5.29-11.63l.87.68a124.51,124.51,0,0,1-5.19,11.67ZM645,81.45a33.37,33.37,0,0,1,5.58,3.93l-.79.75a30.73,30.73,0,0,0-5.58-4ZM657,98.8h1v3.06c0,3.53-1,7.78-6.88,10.94a4,4,0,0,0-.82-.72c5.76-3,6.66-7,6.66-10.22Zm12.13-12.38a14.52,14.52,0,0,1-5.08,7.7,27.71,27.71,0,0,0,11.23,3.71,4.8,4.8,0,0,0-.68,1,29.46,29.46,0,0,1-11.45-4.07c-3,2-6.77,3.31-11.12,4.25a6.67,6.67,0,0,0-.76-1,27.53,27.53,0,0,0,11-3.85,16.68,16.68,0,0,1-5.79-7.74h-4.58v-1h10.62a29.32,29.32,0,0,0-2-4.25l1-.29a20.6,20.6,0,0,1,2.16,4.54h10.95v1Zm-11.52,0a16.14,16.14,0,0,0,5.54,7.09,13.83,13.83,0,0,0,4.79-7.09Zm10.29,12.31h1V113h-1Z"/><path class="e" d="M696.84,100.46v10.69H687v2.16h-1V101.75a21.61,21.61,0,0,1-3.7,5.19,4.76,4.76,0,0,0-.83-.87,22.22,22.22,0,0,0,5.76-10.29h-3.57v-1h3.85a45.41,45.41,0,0,0,1-4.9h-6.37V88.76h6.55c.21-1.58.39-3.2.57-4.9h-5.43v-1h12.63v5.94H699v1.08h-2.52v5.94h-8.2a29.72,29.72,0,0,1-1.7,4.68Zm-9.82,1v8.57h8.74V101.5Zm2.59-11.66c-.29,1.73-.65,3.35-1.05,4.9h6.88v-4.9Zm.75-6c-.18,1.7-.36,3.35-.61,4.9h5.69v-4.9Zm24.23,20.45H707v9h-1v-9h-7.46v-1H706v-6.7h-6V95.49h6V89H699.4V88h14.33v1H707v6.48h6.08v1.08H707v6.7h7.56ZM703,87.39a21.89,21.89,0,0,0-2.7-5.94l.87-.29A19.54,19.54,0,0,1,704,87Zm9.86-6.23c-1,2.06-2.19,4.65-3.23,6.34l-.9-.32a41.7,41.7,0,0,0,3.09-6.38Z"/><rect class="c" x="608.84" y="0.51" width="139.01" height="151.83"/><path class="e" d="M277.29,66.7a41.8,41.8,0,0,1-12.24,15.54c3.73,6.06,8.46,9.66,13.74,9.6,2.28,0,3.06-2.1,3.42-8.7a4,4,0,0,0,1.68.84c-.48,7.32-1.56,9.66-5.16,9.66-5.88,0-11.1-3.9-15.06-10.38-6,4.38-13.13,7.5-21.05,9.9a9,9,0,0,0-1.26-1.56c8.22-2.16,15.48-5.34,21.47-9.84a58.83,58.83,0,0,1-6-18.54h-19.2v6.36c0,7-1.14,16.92-7,24.18a4.34,4.34,0,0,0-1.38-1.2c5.64-7,6.66-16.26,6.66-23v-8h20.7c-.36-2.76-.61-5.7-.73-8.64h1.81a66.21,66.21,0,0,0,.72,8.64h24.65v1.74H258.64a54.83,54.83,0,0,0,5.57,17.46,39.15,39.15,0,0,0,11.4-14.58Zm-32-19.2H230.62V45.76h14.64V39.58h1.68v6.18h18.65V39.58h1.74v6.18h15.48V47.5H267.33v6.12h-1.74V47.5H246.94v6.12h-1.68Zm33.53,13.26a74.1,74.1,0,0,0-8.82-7.2l1.2-1a64.64,64.64,0,0,1,8.82,7Z"/><path class="e" d="M330.29,39.88A12.67,12.67,0,0,1,329,41.74C335,49.12,346.37,56.8,355.61,60a11.18,11.18,0,0,0-1.38,1.56c-8.88-3.48-20-11-26.28-18.54-6.3,7.86-16.14,14.82-26.16,18.6a10.7,10.7,0,0,0-1.32-1.56c11.22-4,22.5-12.06,28.26-21Zm-1.56,49.8h25.14v1.74h-51.6V89.68H327V71.8h-22.2V70.06H327V59.92h-13.8V58.18h29.88v1.74H328.73V70.06h22.86V71.8H328.73ZM312.59,75a56.8,56.8,0,0,1,6,11.64l-1.68.66A52.77,52.77,0,0,0,311,75.52Zm23.46,11.7a77.34,77.34,0,0,0,7.2-11.88l1.68.84a105.3,105.3,0,0,1-7.5,11.82Z"/><path class="b" d="M420.17,77.74,413,79.24v14.1h-1.74V79.66c-4.56,1-8.94,1.92-12.54,2.7l-.54-1.86c3.48-.66,8.1-1.62,13.08-2.7V67.48h-7a8,8,0,0,0-4,.72v0l-.06.06V68a4.71,4.71,0,0,0-.6-1.56c.78-.12,1.62-2.34,2.58-5A124.58,124.58,0,0,0,406,49.06h-7.8V47.32h8.16c.6-2.52,1.14-5.1,1.5-7.62l1.8.42c-.48,2.4-.9,4.8-1.5,7.2h11v1.74h-11.4a119.35,119.35,0,0,1-5.22,16.68h8.76v-10H413v10h6.24v1.74H413v10l7-1.44Zm17.52-27.42v7h11.88V90.64c0,1.38-.3,2-1.32,2.34s-3,.36-6,.36a7.42,7.42,0,0,0-.78-1.8c2.64.12,4.86.06,5.52.06s.84-.24.84-.9V80.08H437.69V93.22H436V80.08H425.87V93.52h-1.74V57.28H436v-7H422V48.58h14v-9h1.74v9h14.46v1.74ZM425.87,59V67.6H436V59ZM436,78.34v-9H425.87v9ZM437.69,59V67.6h10.14V59Zm10.14,19.32v-9H437.69v9Zm1-31.74a91.36,91.36,0,0,0-8-5.52l1.14-1a86.4,86.4,0,0,1,8.1,5.34Z"/><path class="b" d="M521.46,74.86h-14V90.22c0,1.68-.48,2.34-1.92,2.64s-4.68.36-10.68.36a7.92,7.92,0,0,0-.78-1.62c5.16.12,9.06.06,10.14,0s1.5-.36,1.5-1.32V74.86H469V73.12h36.72V67.24h1.74v5.88h14Zm-37.2-9.36c-8,0-10.32-.78-10.32-5.1V42.76h40.5V55H475.68v5.46c0,2.52,1.26,3.3,8.1,3.3h27.48c5.1,0,5.88-1.14,6.3-6.84a6.16,6.16,0,0,0,1.86.78c-.54,6.24-1.62,7.8-8.28,7.8Zm-8.58-21v8.76h37V44.5Zm4.68,31.44c3.66,3.54,7.62,8.4,9.36,11.7l-1.5,1c-1.62-3.3-5.58-8.34-9.24-11.88Z"/><rect class="c" x="152.36" y="0.51" width="456.48" height="151.83"/></svg>