<svg xmlns="http://www.w3.org/2000/svg" viewBox="0 0 747.85 151.83"><defs><style>.a{fill:#ff3548;}.b,.c{fill:none;}.c{stroke:#333;stroke-miterlimit:10;}.d{fill:#adadad;}.e,.f{fill:#333;}.e{stroke:#fff;stroke-linecap:round;stroke-linejoin:round;stroke-width:0.25px;}</style></defs><path class="a" d="M108.83,51.16S100.76,61.78,96.74,67.1C92.49,72.72,88.26,78.34,84,84a10.94,10.94,0,0,1-1.4,1.63,3.67,3.67,0,0,1-3.84.55,3.19,3.19,0,0,1-2.14-2.87,19.42,19.42,0,0,1,0-2.16q0-13.55,0-27.1V50.6c-1,1.22-1.64,1.92-2.21,2.67Q62.67,68.71,51,84.17c-1,1.29-2,2.29-3.75,2.23A3.48,3.48,0,0,1,44,81.47a9.46,9.46,0,0,1,1.14-1.83Q60.94,58.79,76.71,38A7,7,0,0,1,78,36.57a3.56,3.56,0,0,1,5.78,2.3A14.23,14.23,0,0,1,83.82,41V71.58c.76-.81,1.2-1.2,1.55-1.66l23.86-31.53a13.17,13.17,0,0,1,1.19-1.47,3.61,3.61,0,0,1,4-.89,3.32,3.32,0,0,1,2.27,3.08c.07.81.06,1.63.06,2.44V72.3c.92-1,1.49-1.56,2-2.19q13.06-15.9,26.11-31.82a11.12,11.12,0,0,1,1.43-1.62,3.66,3.66,0,0,1,6,2.27,12,12,0,0,1,0,1.9q0,27.77,0,55.54A21.47,21.47,0,0,1,110,101.12a20.13,20.13,0,0,1-.43-4c0-2.69,1.21-4.18,3.41-4.31a3.94,3.94,0,0,1,3.86,4,12.48,12.48,0,0,0,2.65,7.81,14.12,14.12,0,0,0,15.64,5.18,13.87,13.87,0,0,0,9.86-13.41q0-21.68,0-43.35V50.08c-1,1.05-1.61,1.65-2.15,2.32Q130,68,117.23,83.63a15,15,0,0,1-1.82,2,3.61,3.61,0,0,1-3.84.49,3.09,3.09,0,0,1-2-2.93c0-.72,0-1.44,0-2.17V51.31s0-1,0-1Z"/><rect class="b" x="9.01" y="9.59" width="728.71" height="134.31"/><line class="c" x1="608.84" y1="9.59" x2="608.84" y2="143.9"/><path class="d" d="M697.67,69c0,9.77-2.57,13.4-2.57,13.4l7.14,6.27-4.39,5.13-6.7-6c-3.07,3.45-8.39,6-14.46,6-8.64,0-14.59-5.82-14.59-11.4,0-4.13,1.62-7.2,8.64-12.46-4.57-4.19-6.14-7.14-6.14-10.27,0-6.07,4.89-11.21,12-11.21s12,5.14,12,11.21c0,3.57-1.56,6-7.07,10.71l8.07,7.14s.94-1.38.94-8.52ZM685.89,83.22l-10-8.71C670.67,79,669.61,80,669.61,82c0,3.13,3.57,4.94,7.08,4.94A13.48,13.48,0,0,0,685.89,83.22Zm-9.52-17.29c4.26-3.56,4.83-4.88,4.83-6.26a4.68,4.68,0,0,0-9.34,0C671.86,61.86,673.49,63.18,676.37,65.93Z"/><path class="e" d="M625,38.69h4.55c2.28,0,4.46,1.06,4.46,4a2.87,2.87,0,0,1-1.46,2.58,3.27,3.27,0,0,1,2.18,3.28c0,2.46-2,4.14-4.68,4.14h-5Zm4.47,5.73c1.34,0,2.1-.5,2.1-1.72s-.92-1.73-2.1-1.73h-2.07v3.45Zm2.82,4.14c0-1.32-1-1.86-2.32-1.86h-2.57v3.72H630C631.27,50.42,632.27,49.88,632.27,48.56Z"/><path class="e" d="M645.5,47.92c0,.18,0,.54,0,.9H638.4a2.71,2.71,0,0,0,2.66,1.92,3.82,3.82,0,0,0,2.6-1l1.2,1.8a6.07,6.07,0,0,1-3.8,1.36,5,5,0,0,1-5.1-5,4.77,4.77,0,1,1,9.54,0Zm-2.4-.84a2.4,2.4,0,0,0-4.7,0Z"/><path class="e" d="M655.36,43.22v1.24A3.43,3.43,0,0,1,658.22,43a5,5,0,0,1,0,10,3.38,3.38,0,0,1-2.68-1.22V57.3h-2.4V43.22Zm.18,6.16a2.63,2.63,0,0,0,2.26,1.32,2.74,2.74,0,0,0,0-5.48,2.63,2.63,0,0,0-2.26,1.32Z"/><path class="e" d="M671.05,43.28l-.84,2.16a2.76,2.76,0,0,0-1.14-.22A2.51,2.51,0,0,0,667,46.5v6.2h-2.4V43.22h2.28V44.6A3.09,3.09,0,0,1,669.41,43,5,5,0,0,1,671.05,43.28Z"/><path class="e" d="M681.33,48a5.07,5.07,0,1,1-5.07-5A5,5,0,0,1,681.33,48Zm-2.44,0a2.63,2.63,0,1,0-2.63,2.74A2.6,2.6,0,0,0,678.89,48Z"/><path class="e" d="M682,43.22h1.88V41c0-2.34,1.78-3.66,4-3.66,2.6,0,3.94,1.66,3.94,3.34v.22a1.21,1.21,0,0,1-1.22,1.19,1.17,1.17,0,0,1-1.18-1.19v-.14c0-.74-.64-1.26-1.54-1.26a1.58,1.58,0,0,0-1.62,1.7v2h1.94v2.12H686.3V52.7h-2.4V45.34H682Zm7.44,0h2.4V52.7h-2.4Z"/><path class="e" d="M701.17,49.54l1.58,1.6a5.13,5.13,0,0,1-3.92,1.8,5,5,0,1,1,0-10,5.07,5.07,0,0,1,3.88,1.77l-1.66,1.48a3,3,0,0,0-2.22-1,2.74,2.74,0,0,0,0,5.48A2.8,2.8,0,0,0,701.17,49.54Z"/><path class="e" d="M705.47,38.57a1.58,1.58,0,1,1-1.58,1.58A1.57,1.57,0,0,1,705.47,38.57Zm-1.2,4.65h2.4V52.7h-2.4Z"/><path class="e" d="M718,47.92c0,.18,0,.54,0,.9h-7.08a2.71,2.71,0,0,0,2.66,1.92,3.82,3.82,0,0,0,2.6-1l1.2,1.8a6.07,6.07,0,0,1-3.8,1.36,5,5,0,0,1-5.1-5,4.77,4.77,0,1,1,9.54,0Zm-2.4-.84a2.4,2.4,0,0,0-4.7,0Z"/><path class="e" d="M728.28,46.56V52.7h-2.4V47.16A1.75,1.75,0,0,0,724,45.22a2.34,2.34,0,0,0-1.88,1.22V52.7h-2.4V43.22H722V44.6A3.28,3.28,0,0,1,724.8,43,3.41,3.41,0,0,1,728.28,46.56Z"/><path class="e" d="M729.57,43.22h1.86V40.39h2.4v2.83h2.86v2.16h-2.86V49.2c0,1.16.6,1.5,1.24,1.5a1.9,1.9,0,0,0,1-.34l.88,2a4.32,4.32,0,0,1-2.28.62,3.17,3.17,0,0,1-3.24-3.36v-4.2h-1.86Z"/><path class="e" d="M650.3,69.57h2.4v6.65A3.37,3.37,0,0,1,655.38,75a5,5,0,0,1,0,10,3.28,3.28,0,0,1-2.86-1.48V84.7H650.3Zm2.4,11.81A2.63,2.63,0,0,0,655,82.7a2.74,2.74,0,0,0,0-5.48,2.63,2.63,0,0,0-2.26,1.32Z"/><path class="e" d="M670.66,79.92c0,.18,0,.54,0,.9h-7.08a2.71,2.71,0,0,0,2.66,1.92,3.82,3.82,0,0,0,2.6-1l1.2,1.8a6.07,6.07,0,0,1-3.8,1.36,5,5,0,0,1-5.1-5,4.77,4.77,0,1,1,9.54,0Zm-2.4-.84a2.4,2.4,0,0,0-4.7,0Z"/><path class="e" d="M680.94,78.56V84.7h-2.4V79.16a1.75,1.75,0,0,0-1.88-1.94,2.34,2.34,0,0,0-1.88,1.22V84.7h-2.4V75.22h2.24V76.6A3.28,3.28,0,0,1,677.46,75,3.41,3.41,0,0,1,680.94,78.56Z"/><path class="e" d="M692.13,79.92c0,.18,0,.54,0,.9H685a2.71,2.71,0,0,0,2.66,1.92,3.82,3.82,0,0,0,2.6-1l1.2,1.8a6.07,6.07,0,0,1-3.8,1.36,5,5,0,0,1-5.1-5,4.77,4.77,0,1,1,9.54,0Zm-2.4-.84a2.4,2.4,0,0,0-4.7,0Z"/><path class="e" d="M692.85,75.22h1.88V73c0-2.34,1.78-3.66,4-3.66,2.6,0,3.94,1.66,3.94,3.34v.22a1.21,1.21,0,0,1-1.22,1.19,1.17,1.17,0,0,1-1.18-1.19v-.14c0-.74-.64-1.26-1.54-1.26a1.58,1.58,0,0,0-1.62,1.7v2h1.94v2.12h-1.94V84.7h-2.4V77.34h-1.88Zm7.44,0h2.4V84.7h-2.4Z"/><path class="e" d="M704.26,75.22h1.86V72.39h2.4v2.83h2.86v2.16h-2.86V81.2c0,1.16.6,1.5,1.24,1.5a1.9,1.9,0,0,0,1-.34l.88,2a4.32,4.32,0,0,1-2.28.62,3.17,3.17,0,0,1-3.24-3.36v-4.2h-1.86Z"/><path class="e" d="M662.34,104a5.06,5.06,0,1,1-5.06-5A5,5,0,0,1,662.34,104Zm-2.44,0a2.62,2.62,0,1,0-2.62,2.74A2.6,2.6,0,0,0,659.9,104Z"/><path class="e" d="M663.1,99.22H665V96.39h2.41v2.83h2.86v2.16h-2.86v3.82c0,1.16.59,1.5,1.24,1.5a1.9,1.9,0,0,0,1-.34l.88,2a4.32,4.32,0,0,1-2.28.62,3.18,3.18,0,0,1-3.25-3.36v-4.2H663.1Z"/><path class="e" d="M680.67,102.56v6.14h-2.4v-5.54a1.75,1.75,0,0,0-1.88-1.94,2.34,2.34,0,0,0-1.88,1.24v6.24h-2.4V93.57h2.4v6.79A3.21,3.21,0,0,1,677.19,99,3.41,3.41,0,0,1,680.67,102.56Z"/><path class="e" d="M691.86,103.92c0,.18,0,.54,0,.9h-7.08a2.71,2.71,0,0,0,2.66,1.92,3.82,3.82,0,0,0,2.6-1l1.2,1.8a6.07,6.07,0,0,1-3.8,1.36,5,5,0,0,1-5.1-5,4.77,4.77,0,1,1,9.54,0Zm-2.4-.84a2.4,2.4,0,0,0-4.7,0Z"/><path class="e" d="M700.08,99.28l-.84,2.16a2.76,2.76,0,0,0-1.14-.22A2.51,2.51,0,0,0,696,102.5v6.2h-2.4V99.22h2.28v1.38A3.09,3.09,0,0,1,698.44,99,5,5,0,0,1,700.08,99.28Z"/><path class="e" d="M701.58,105.48a4.46,4.46,0,0,0,2.86,1.36c1,0,1.8-.28,1.8-.86s-.44-.74-1.88-1c-1.88-.4-3.52-1.2-3.52-3,0-1.48,1.48-3,4.08-3a6,6,0,0,1,3.56,1.17l-1.2,1.76a4.4,4.4,0,0,0-2.36-.82c-.9,0-1.72.32-1.72.9s.64.72,2.24,1.06c1.88.4,3.22,1,3.22,3,0,1.62-1.72,2.92-4.14,2.92a5.91,5.91,0,0,1-4.28-1.72Z"/><rect class="b" x="608.84" width="139.01" height="151.83"/><path class="f" d="M201.28,54.25l10.95,16.9,10.94-16.9h5.33v33.6h-5.76V65.29l-10.51,16-10.52-16V87.85H196V54.25Z"/><path class="f" d="M253,73V87.85h-5.33V85a9.2,9.2,0,0,1-7.49,3.46c-4.27,0-8.21-2.78-8.21-7.63,0-4.37,4-7.54,8.93-7.54a11.07,11.07,0,0,1,6.34,1.63V73.6c0-3-2.88-3.94-4.9-3.94a18.43,18.43,0,0,0-6.81,1.68l-1.88-4.75a23,23,0,0,1,9-2.07C249.14,64.52,253,67.84,253,73Zm-5.76,8V78.64A11.49,11.49,0,0,0,242,77.49c-1.78,0-4.23.76-4.23,3.21s2.35,2.93,4.13,2.93A6.74,6.74,0,0,0,247.22,81Z"/><path class="f" d="M259.26,65.1,265,77.49l5.76-12.39H277L264.93,89,252.88,65.1Z"/><path class="f" d="M304.48,54.25h5.76v23c0,7.06-4.37,11.14-11.48,11.14a11.78,11.78,0,0,1-9.84-5.62l4.23-3.55s2.11,3.7,5.61,3.7c4.42,0,5.72-2.88,5.72-5.47Z"/><path class="f" d="M334.28,73V87.85H329V85a9.2,9.2,0,0,1-7.49,3.46c-4.27,0-8.2-2.78-8.2-7.63,0-4.37,4-7.54,8.92-7.54a11.07,11.07,0,0,1,6.34,1.63V73.6c0-3-2.88-3.94-4.89-3.94a18.44,18.44,0,0,0-6.82,1.68l-1.87-4.75a23,23,0,0,1,9-2.07C330.44,64.52,334.28,67.84,334.28,73Zm-5.76,8V78.64a11.49,11.49,0,0,0-5.18-1.15c-1.78,0-4.23.76-4.23,3.21s2.35,2.93,4.13,2.93A6.74,6.74,0,0,0,328.52,81Z"/><path class="f" d="M340.56,65.1l5.76,12.39,5.76-12.39h6.2L346.23,89,334.18,65.1Z"/><path class="a" d="M379.39,67.89h13.45v5.47H379.39v9h14.89v5.47H373.63V54.25H394v5.47h-14.6Z"/><path class="a" d="M419,87.85H413.7v-3a7.87,7.87,0,0,1-6.86,3.55c-5.91,0-11.09-4.94-11.09-12s5.18-12,11.09-12a8.11,8.11,0,0,1,6.43,3V51.56H419Zm-5.76-14.78a6.3,6.3,0,0,0-5.43-3.17c-3.88,0-6.24,2.83-6.24,6.58s2.36,6.57,6.24,6.57a6.31,6.31,0,0,0,5.43-3.16Z"/><path class="a" d="M423.23,79.84V65.1H429V78.25c0,3.36,1.58,4.8,4.51,4.8A5.59,5.59,0,0,0,438,80.27V65.1h5.76V87.85H438.4V84.54a8.2,8.2,0,0,1-15.17-4.7Z"/><path class="a" d="M464.12,80.27l3.79,3.84a12.31,12.31,0,0,1-9.41,4.32,12,12,0,1,1,0-23.91,12.21,12.21,0,0,1,9.32,4.23l-4,3.55a7.07,7.07,0,0,0-5.33-2.4,6.58,6.58,0,0,0,0,13.15A6.73,6.73,0,0,0,464.12,80.27Z"/><path class="a" d="M489.74,73V87.85h-5.33V85a9.2,9.2,0,0,1-7.49,3.46c-4.27,0-8.21-2.78-8.21-7.63,0-4.37,4-7.54,8.93-7.54A11.07,11.07,0,0,1,484,74.89V73.6c0-3-2.88-3.94-4.9-3.94a18.43,18.43,0,0,0-6.81,1.68l-1.88-4.75a23,23,0,0,1,9-2.07C485.9,64.52,489.74,67.84,489.74,73ZM484,81V78.64a11.49,11.49,0,0,0-5.18-1.15c-1.78,0-4.23.76-4.23,3.21s2.35,2.93,4.13,2.93A6.74,6.74,0,0,0,484,81Z"/><path class="a" d="M491.26,65.1h4.46V58.33h5.77V65.1h6.86v5.19h-6.86v9.16c0,2.79,1.43,3.6,3,3.6a4.56,4.56,0,0,0,2.4-.81l2.11,4.7a10.35,10.35,0,0,1-5.47,1.49c-4.41,0-7.78-3.22-7.78-8.06V70.29h-4.46Z"/><path class="a" d="M514.17,54a3.8,3.8,0,1,1-3.79,3.8A3.77,3.77,0,0,1,514.17,54ZM511.29,65.1h5.76V87.85h-5.76Z"/><path class="a" d="M544.08,76.48a12.15,12.15,0,1,1-12.14-12A12,12,0,0,1,544.08,76.48Zm-5.86,0c0-3.55-2.39-6.58-6.28-6.58s-6.29,3-6.29,6.58,2.4,6.57,6.29,6.57S538.22,80,538.22,76.48Z"/><path class="a" d="M567.12,73.12V87.85h-5.76V74.56c0-3.27-2-4.66-4.52-4.66-3,0-4.51,2.93-4.51,2.93v15h-5.76V65.1H552v3.31a7.85,7.85,0,0,1,6.81-3.89A8.16,8.16,0,0,1,567.12,73.12Z"/><rect class="b" x="152.36" y="0.74" width="456.48" height="151.83"/></svg>