<svg xmlns="http://www.w3.org/2000/svg" viewBox="0 0 747.85 151.83"><defs><style>.a{fill:#333;}.b{fill:#ff3548;}.c,.d{fill:none;}.d{stroke:#fff;stroke-miterlimit:10;}.e{fill:#525252;}.f,.g{fill:#fff;}.f{stroke:#333;stroke-linecap:round;stroke-linejoin:round;stroke-width:0.25px;}</style></defs><rect class="a" width="747.85" height="151.83"/><path class="b" d="M108.83,51.08s-8.07,10.63-12.09,16C92.49,72.64,88.26,78.27,84,83.88a11,11,0,0,1-1.4,1.64,3.71,3.71,0,0,1-3.84.55,3.21,3.21,0,0,1-2.14-2.87,19.65,19.65,0,0,1,0-2.17q0-13.55,0-27.09V50.53c-1,1.21-1.64,1.91-2.21,2.66Q62.67,68.63,51,84.09c-1,1.3-2,2.29-3.75,2.23A3.48,3.48,0,0,1,44,81.39a9.1,9.1,0,0,1,1.14-1.82Q60.94,58.72,76.71,37.88A7.32,7.32,0,0,1,78,36.49a3.56,3.56,0,0,1,5.78,2.31A14.1,14.1,0,0,1,83.82,41V71.5c.76-.81,1.2-1.2,1.55-1.66q11.94-15.75,23.86-31.53a15.28,15.28,0,0,1,1.19-1.47,3.61,3.61,0,0,1,4-.89A3.35,3.35,0,0,1,116.69,39c.07.8.06,1.62.06,2.43V72.22c.92-1,1.49-1.56,2-2.18l26.11-31.83a11.12,11.12,0,0,1,1.43-1.62,3.66,3.66,0,0,1,6,2.28,11.88,11.88,0,0,1,0,1.89q0,27.77,0,55.54A21.47,21.47,0,0,1,110,101a20.11,20.11,0,0,1-.43-4c0-2.7,1.21-4.18,3.41-4.32a4,4,0,0,1,3.86,4,12.44,12.44,0,0,0,2.65,7.8,14.11,14.11,0,0,0,15.64,5.19,13.88,13.88,0,0,0,9.86-13.42q0-21.67,0-43.35V50c-1,1.06-1.61,1.66-2.15,2.32Q130,67.94,117.23,83.55a15.06,15.06,0,0,1-1.82,2,3.65,3.65,0,0,1-3.84.49,3.1,3.1,0,0,1-2-2.94c0-.72,0-1.44,0-2.16V51.24c0-.05,0-1.05,0-1.05Z"/><polyline class="c" points="738.27 9.51 738.27 143.82 9.57 143.82 9.57 9.51"/><line class="d" x1="608.84" y1="11.11" x2="608.84" y2="145.42"/><rect class="c" x="608.84" y="0.51" width="139.01" height="151.83"/><path class="e" d="M697.67,69.51c0,9.77-2.57,13.41-2.57,13.41l7.14,6.26-4.39,5.13-6.7-6c-3.07,3.45-8.39,6-14.46,6-8.64,0-14.59-5.82-14.59-11.39,0-4.14,1.62-7.21,8.64-12.47-4.57-4.19-6.14-7.13-6.14-10.27,0-6.07,4.89-11.21,12-11.21s12,5.14,12,11.21c0,3.57-1.56,6-7.07,10.71L689.52,78s.94-1.38.94-8.52ZM685.89,83.73l-10-8.7c-5.26,4.5-6.32,5.44-6.32,7.45,0,3.13,3.57,4.94,7.08,4.94A13.48,13.48,0,0,0,685.89,83.73Zm-9.52-17.28c4.26-3.57,4.83-4.89,4.83-6.27a4.68,4.68,0,0,0-9.34,0C671.86,62.38,673.49,63.69,676.37,66.45Z"/><path class="f" d="M625,39.21h4.55c2.28,0,4.46,1.06,4.46,4a2.87,2.87,0,0,1-1.46,2.58,3.27,3.27,0,0,1,2.18,3.28c0,2.46-2,4.14-4.68,4.14h-5Zm4.47,5.72c1.34,0,2.1-.5,2.1-1.72s-.92-1.72-2.1-1.72h-2.07v3.44Zm2.82,4.14c0-1.32-1-1.86-2.32-1.86h-2.57v3.72H630C631.27,50.93,632.27,50.39,632.27,49.07Z"/><path class="f" d="M645.5,48.43c0,.18,0,.54,0,.9H638.4a2.71,2.71,0,0,0,2.66,1.92,3.82,3.82,0,0,0,2.6-1l1.2,1.8a6.07,6.07,0,0,1-3.8,1.36,5,5,0,0,1-5.1-5,4.77,4.77,0,1,1,9.54,0Zm-2.4-.84a2.4,2.4,0,0,0-4.7,0Z"/><path class="f" d="M655.36,43.73V45a3.44,3.44,0,0,1,2.86-1.48,5,5,0,0,1,0,10,3.38,3.38,0,0,1-2.68-1.22v5.58h-2.4V43.73Zm.18,6.16a2.63,2.63,0,0,0,2.26,1.32,2.74,2.74,0,0,0,0-5.48,2.63,2.63,0,0,0-2.26,1.32Z"/><path class="f" d="M671.05,43.79,670.21,46a2.76,2.76,0,0,0-1.14-.22A2.51,2.51,0,0,0,667,47v6.2h-2.4V43.73h2.28v1.38a3.09,3.09,0,0,1,2.58-1.62A5.16,5.16,0,0,1,671.05,43.79Z"/><path class="f" d="M681.33,48.47a5.07,5.07,0,1,1-5.07-5A5,5,0,0,1,681.33,48.47Zm-2.44,0a2.63,2.63,0,1,0-2.63,2.74A2.6,2.6,0,0,0,678.89,48.47Z"/><path class="f" d="M682,43.73h1.88V41.51c0-2.34,1.78-3.66,4-3.66,2.6,0,3.94,1.66,3.94,3.34v.22a1.2,1.2,0,0,1-1.22,1.18,1.16,1.16,0,0,1-1.18-1.18v-.14c0-.74-.64-1.26-1.54-1.26a1.58,1.58,0,0,0-1.62,1.7v2h1.94v2.12H686.3v7.36h-2.4V45.85H682Zm7.44,0h2.4v9.48h-2.4Z"/><path class="f" d="M701.17,50.05l1.58,1.6a5.13,5.13,0,0,1-3.92,1.8,5,5,0,1,1,0-10,5.08,5.08,0,0,1,3.88,1.76l-1.66,1.48a3,3,0,0,0-2.22-1,2.74,2.74,0,0,0,0,5.48A2.8,2.8,0,0,0,701.17,50.05Z"/><path class="f" d="M705.47,39.09a1.58,1.58,0,1,1-1.58,1.58A1.57,1.57,0,0,1,705.47,39.09Zm-1.2,4.64h2.4v9.48h-2.4Z"/><path class="f" d="M718,48.43c0,.18,0,.54,0,.9h-7.08a2.71,2.71,0,0,0,2.66,1.92,3.82,3.82,0,0,0,2.6-1l1.2,1.8a6.07,6.07,0,0,1-3.8,1.36,5,5,0,0,1-5.1-5,4.77,4.77,0,1,1,9.54,0Zm-2.4-.84a2.4,2.4,0,0,0-4.7,0Z"/><path class="f" d="M728.28,47.07v6.14h-2.4V47.67A1.75,1.75,0,0,0,724,45.73,2.34,2.34,0,0,0,722.12,47v6.26h-2.4V43.73H722v1.38a3.28,3.28,0,0,1,2.84-1.62A3.4,3.4,0,0,1,728.28,47.07Z"/><path class="f" d="M729.57,43.73h1.86V40.91h2.4v2.82h2.86v2.16h-2.86v3.82c0,1.16.6,1.5,1.24,1.5a1.9,1.9,0,0,0,1-.34l.88,2a4.32,4.32,0,0,1-2.28.62,3.17,3.17,0,0,1-3.24-3.36v-4.2h-1.86Z"/><path class="f" d="M650.3,70.09h2.4v6.64a3.38,3.38,0,0,1,2.68-1.24,5,5,0,0,1,0,10A3.28,3.28,0,0,1,652.52,84v1.24H650.3Zm2.4,11.8A2.63,2.63,0,0,0,655,83.21a2.74,2.74,0,0,0,0-5.48,2.63,2.63,0,0,0-2.26,1.32Z"/><path class="f" d="M670.66,80.43c0,.18,0,.54,0,.9h-7.08a2.71,2.71,0,0,0,2.66,1.92,3.82,3.82,0,0,0,2.6-1l1.2,1.8a6.07,6.07,0,0,1-3.8,1.36,5,5,0,0,1-5.1-5,4.77,4.77,0,1,1,9.54,0Zm-2.4-.84a2.4,2.4,0,0,0-4.7,0Z"/><path class="f" d="M680.94,79.07v6.14h-2.4V79.67a1.75,1.75,0,0,0-1.88-1.94A2.34,2.34,0,0,0,674.78,79v6.26h-2.4V75.73h2.24v1.38a3.28,3.28,0,0,1,2.84-1.62A3.4,3.4,0,0,1,680.94,79.07Z"/><path class="f" d="M692.13,80.43c0,.18,0,.54,0,.9H685a2.71,2.71,0,0,0,2.66,1.92,3.82,3.82,0,0,0,2.6-1l1.2,1.8a6.07,6.07,0,0,1-3.8,1.36,5,5,0,0,1-5.1-5,4.77,4.77,0,1,1,9.54,0Zm-2.4-.84a2.4,2.4,0,0,0-4.7,0Z"/><path class="f" d="M692.85,75.73h1.88V73.51c0-2.34,1.78-3.66,4-3.66,2.6,0,3.94,1.66,3.94,3.34v.22a1.2,1.2,0,0,1-1.22,1.18,1.16,1.16,0,0,1-1.18-1.18v-.14c0-.74-.64-1.26-1.54-1.26a1.58,1.58,0,0,0-1.62,1.7v2h1.94v2.12h-1.94v7.36h-2.4V77.85h-1.88Zm7.44,0h2.4v9.48h-2.4Z"/><path class="f" d="M704.26,75.73h1.86V72.91h2.4v2.82h2.86v2.16h-2.86v3.82c0,1.16.6,1.5,1.24,1.5a1.9,1.9,0,0,0,1-.34l.88,2a4.32,4.32,0,0,1-2.28.62,3.17,3.17,0,0,1-3.24-3.36v-4.2h-1.86Z"/><path class="f" d="M662.34,104.47a5.06,5.06,0,1,1-5.06-5A5,5,0,0,1,662.34,104.47Zm-2.44,0a2.62,2.62,0,1,0-2.62,2.74A2.6,2.6,0,0,0,659.9,104.47Z"/><path class="f" d="M663.1,99.73H665V96.91h2.41v2.82h2.86v2.16h-2.86v3.82c0,1.16.59,1.5,1.24,1.5a1.9,1.9,0,0,0,1-.34l.88,2a4.32,4.32,0,0,1-2.28.62,3.18,3.18,0,0,1-3.25-3.36v-4.2H663.1Z"/><path class="f" d="M680.67,103.07v6.14h-2.4v-5.54a1.75,1.75,0,0,0-1.88-1.94,2.34,2.34,0,0,0-1.88,1.24v6.24h-2.4V94.09h2.4v6.78a3.22,3.22,0,0,1,2.68-1.38A3.4,3.4,0,0,1,680.67,103.07Z"/><path class="f" d="M691.86,104.43c0,.18,0,.54,0,.9h-7.08a2.71,2.71,0,0,0,2.66,1.92,3.82,3.82,0,0,0,2.6-1l1.2,1.8a6.07,6.07,0,0,1-3.8,1.36,5,5,0,0,1-5.1-5,4.77,4.77,0,1,1,9.54,0Zm-2.4-.84a2.4,2.4,0,0,0-4.7,0Z"/><path class="f" d="M700.08,99.79l-.84,2.16a2.76,2.76,0,0,0-1.14-.22A2.51,2.51,0,0,0,696,103v6.2h-2.4V99.73h2.28v1.38a3.09,3.09,0,0,1,2.59-1.62A5.16,5.16,0,0,1,700.08,99.79Z"/><path class="f" d="M701.58,106a4.46,4.46,0,0,0,2.86,1.36c1,0,1.8-.28,1.8-.86s-.44-.74-1.88-1c-1.88-.4-3.52-1.2-3.52-3,0-1.48,1.48-3,4.08-3a6.05,6.05,0,0,1,3.56,1.16l-1.2,1.76a4.4,4.4,0,0,0-2.36-.82c-.9,0-1.72.32-1.72.9s.64.72,2.24,1.06c1.88.4,3.22,1,3.22,3,0,1.62-1.72,2.92-4.14,2.92a5.91,5.91,0,0,1-4.28-1.72Z"/><path class="g" d="M201.28,55.77l10.95,16.9,10.94-16.9h5.33V89.38h-5.76V66.82l-10.51,16-10.52-16V89.38H196V55.77Z"/><path class="g" d="M253,74.54V89.38h-5.33V86.5A9.21,9.21,0,0,1,240.16,90c-4.27,0-8.21-2.78-8.21-7.63,0-4.37,4-7.54,8.93-7.54a11,11,0,0,1,6.34,1.64v-1.3c0-3-2.88-3.94-4.9-3.94a18.43,18.43,0,0,0-6.81,1.68l-1.88-4.75a23.12,23.12,0,0,1,9-2.06C249.14,66.05,253,69.36,253,74.54Zm-5.76,8V80.16A11.49,11.49,0,0,0,242,79c-1.78,0-4.23.77-4.23,3.21s2.35,2.93,4.13,2.93A6.74,6.74,0,0,0,247.22,82.51Z"/><path class="g" d="M259.26,66.62,265,79l5.76-12.39H277L264.93,90.53,252.88,66.62Z"/><path class="g" d="M304.48,55.77h5.76v23c0,7.05-4.37,11.13-11.48,11.13a11.78,11.78,0,0,1-9.84-5.61l4.23-3.56s2.11,3.7,5.61,3.7c4.42,0,5.72-2.88,5.72-5.47Z"/><path class="g" d="M334.28,74.54V89.38H329V86.5A9.21,9.21,0,0,1,321.46,90c-4.27,0-8.2-2.78-8.2-7.63,0-4.37,4-7.54,8.92-7.54a11,11,0,0,1,6.34,1.64v-1.3c0-3-2.88-3.94-4.89-3.94a18.44,18.44,0,0,0-6.82,1.68l-1.87-4.75a23,23,0,0,1,9-2.06C330.44,66.05,334.28,69.36,334.28,74.54Zm-5.76,8V80.16A11.49,11.49,0,0,0,323.34,79c-1.78,0-4.23.77-4.23,3.21s2.35,2.93,4.13,2.93A6.74,6.74,0,0,0,328.52,82.51Z"/><path class="g" d="M340.56,66.62,346.32,79l5.76-12.39h6.2l-12,23.91L334.18,66.62Z"/><path class="b" d="M379.39,69.41h13.45v5.47H379.39v9h14.89v5.48H373.63V55.77H394v5.48h-14.6Z"/><path class="b" d="M419,89.38H413.7v-3A7.87,7.87,0,0,1,406.84,90c-5.91,0-11.09-4.94-11.09-12s5.18-12,11.09-12a8.11,8.11,0,0,1,6.43,3V53.09H419Zm-5.76-14.79a6.3,6.3,0,0,0-5.43-3.17c-3.88,0-6.24,2.84-6.24,6.58s2.36,6.58,6.24,6.58a6.3,6.3,0,0,0,5.43-3.17Z"/><path class="b" d="M423.23,81.36V66.62H429V79.78c0,3.36,1.58,4.8,4.51,4.8A5.59,5.59,0,0,0,438,81.79V66.62h5.76V89.38H438.4V86.06a8.2,8.2,0,0,1-15.17-4.7Z"/><path class="b" d="M464.12,81.79l3.79,3.84A12.31,12.31,0,0,1,458.5,90a12,12,0,1,1,0-23.9,12.22,12.22,0,0,1,9.32,4.22l-4,3.55a7.07,7.07,0,0,0-5.33-2.4,6.58,6.58,0,0,0,0,13.16A6.72,6.72,0,0,0,464.12,81.79Z"/><path class="b" d="M489.74,74.54V89.38h-5.33V86.5A9.21,9.21,0,0,1,476.92,90c-4.27,0-8.21-2.78-8.21-7.63,0-4.37,4-7.54,8.93-7.54A11,11,0,0,1,484,76.42v-1.3c0-3-2.88-3.94-4.9-3.94a18.43,18.43,0,0,0-6.81,1.68l-1.88-4.75a23.12,23.12,0,0,1,9-2.06C485.9,66.05,489.74,69.36,489.74,74.54Zm-5.76,8V80.16A11.49,11.49,0,0,0,478.8,79c-1.78,0-4.23.77-4.23,3.21s2.35,2.93,4.13,2.93A6.74,6.74,0,0,0,484,82.51Z"/><path class="b" d="M491.26,66.62h4.46V59.85h5.77v6.77h6.86v5.19h-6.86V81c0,2.78,1.43,3.6,3,3.6a4.53,4.53,0,0,0,2.4-.82l2.11,4.7A10.35,10.35,0,0,1,503.5,90c-4.41,0-7.78-3.21-7.78-8.06V71.81h-4.46Z"/><path class="b" d="M514.17,55.49a3.79,3.79,0,1,1-3.79,3.79A3.77,3.77,0,0,1,514.17,55.49Zm-2.88,11.13h5.76V89.38h-5.76Z"/><path class="b" d="M544.08,78a12.15,12.15,0,1,1-12.14-12A12,12,0,0,1,544.08,78Zm-5.86,0c0-3.55-2.39-6.58-6.28-6.58s-6.29,3-6.29,6.58,2.4,6.58,6.29,6.58S538.22,81.55,538.22,78Z"/><path class="b" d="M567.12,74.64V89.38h-5.76V76.08c0-3.26-2-4.66-4.52-4.66-3,0-4.51,2.93-4.51,2.93v15h-5.76V66.62H552v3.32a7.85,7.85,0,0,1,6.81-3.89A8.16,8.16,0,0,1,567.12,74.64Z"/><rect class="c" x="152.36" width="456.48" height="151.83"/></svg>