<svg xmlns="http://www.w3.org/2000/svg" viewBox="0 0 747.85 151.83"><defs><style>.a{fill:#333;}.b{fill:#525252;}.c{fill:#ff3548;}.d,.f{fill:none;}.e,.g{fill:#fff;}.e{stroke:#333;stroke-linecap:round;stroke-linejoin:round;stroke-width:0.25px;}.f{stroke:#fff;stroke-miterlimit:10;}</style></defs><rect class="a" width="747.85" height="151.83"/><path class="b" d="M695.53,102.64c0,9.77-2.57,13.4-2.57,13.4l7.14,6.26-4.38,5.14-6.7-6c-3.07,3.44-8.4,6-14.47,6-8.64,0-14.59-5.83-14.59-11.4,0-4.13,1.63-7.2,8.64-12.46-4.57-4.2-6.14-7.14-6.14-10.27,0-6.08,4.89-11.21,12-11.21s12,5.13,12,11.21c0,3.57-1.57,6-7.08,10.71l8.08,7.14s.94-1.38.94-8.52Zm-11.77,14.21-10-8.7c-5.26,4.51-6.33,5.45-6.33,7.45,0,3.13,3.57,5,7.08,5A13.46,13.46,0,0,0,683.76,116.85Zm-9.52-17.28c4.26-3.57,4.82-4.88,4.82-6.26a4.68,4.68,0,0,0-9.33,0C669.73,95.5,671.36,96.82,674.24,99.57Z"/><path class="c" d="M108.83,51.08s-8.07,10.63-12.09,16C92.49,72.64,88.26,78.27,84,83.88a11,11,0,0,1-1.4,1.64,3.71,3.71,0,0,1-3.84.55,3.21,3.21,0,0,1-2.14-2.87,19.65,19.65,0,0,1,0-2.17q0-13.55,0-27.09V50.53c-1,1.21-1.64,1.91-2.21,2.66Q62.67,68.63,51,84.09c-1,1.3-2,2.29-3.75,2.23A3.48,3.48,0,0,1,44,81.39a9.1,9.1,0,0,1,1.14-1.82Q60.94,58.72,76.71,37.88A7.32,7.32,0,0,1,78,36.49a3.56,3.56,0,0,1,5.78,2.31A14.1,14.1,0,0,1,83.82,41V71.5c.76-.81,1.2-1.2,1.55-1.66q11.94-15.75,23.86-31.53a15.28,15.28,0,0,1,1.19-1.47,3.61,3.61,0,0,1,4-.89A3.35,3.35,0,0,1,116.69,39c.07.8.06,1.62.06,2.43V72.22c.92-1,1.49-1.56,2-2.18l26.11-31.83a11.12,11.12,0,0,1,1.43-1.62,3.66,3.66,0,0,1,6,2.28,11.88,11.88,0,0,1,0,1.89q0,27.77,0,55.54A21.47,21.47,0,0,1,110,101a20.11,20.11,0,0,1-.43-4c0-2.7,1.21-4.18,3.41-4.32a4,4,0,0,1,3.86,4,12.44,12.44,0,0,0,2.65,7.8,14.11,14.11,0,0,0,15.64,5.19,13.88,13.88,0,0,0,9.86-13.42q0-21.67,0-43.35V50c-1,1.06-1.61,1.66-2.15,2.32Q130,67.94,117.23,83.55a15.06,15.06,0,0,1-1.82,2,3.65,3.65,0,0,1-3.84.49,3.1,3.1,0,0,1-2-2.94c0-.72,0-1.44,0-2.16V51.24c0-.05,0-1.05,0-1.05Z"/><polyline class="d" points="738.27 9.51 738.27 143.82 9.57 143.82 9.57 9.51"/><path class="e" d="M642.55,39h2.07l4.62,11.9h-2l-1.09-2.82h-5L640,50.94h-2.06Zm-.75,7.21h3.57l-1.79-4.64Z"/><path class="e" d="M652.25,42.88v1.06a2.94,2.94,0,0,1,2.44-1.26,4.24,4.24,0,0,1,0,8.46,2.87,2.87,0,0,1-2.28-1v4.74h-2v-12Zm.16,5.24a2.24,2.24,0,0,0,1.92,1.12,2.33,2.33,0,0,0,0-4.66,2.24,2.24,0,0,0-1.92,1.12Z"/><path class="e" d="M662,42.88v1.06a2.91,2.91,0,0,1,2.43-1.26,4.24,4.24,0,0,1,0,8.46,2.87,2.87,0,0,1-2.28-1v4.74h-2v-12Zm.15,5.24a2.24,2.24,0,0,0,1.92,1.12,2.33,2.33,0,0,0,0-4.66,2.24,2.24,0,0,0-1.92,1.12Z"/><path class="e" d="M675.37,42.93l-.71,1.84a2.29,2.29,0,0,0-1-.19,2.13,2.13,0,0,0-1.8,1.09v5.27h-2V42.88h1.94v1.18A2.63,2.63,0,0,1,674,42.68,4.43,4.43,0,0,1,675.37,42.93Z"/><path class="e" d="M683.72,46.88c0,.15,0,.46,0,.76h-6A2.28,2.28,0,0,0,680,49.27a3.26,3.26,0,0,0,2.21-.81l1,1.53A5.19,5.19,0,0,1,680,51.14a4.24,4.24,0,0,1-4.34-4.23,4.06,4.06,0,1,1,8.11,0Zm-2-.72a2,2,0,0,0-4,0Z"/><path class="e" d="M692.49,45.72v5.22h-2V46.23a1.49,1.49,0,0,0-1.59-1.65,2,2,0,0,0-1.6,1v5.32h-2V42.88h1.9v1.18a2.8,2.8,0,0,1,2.42-1.38A2.88,2.88,0,0,1,692.49,45.72Z"/><path class="e" d="M702.23,50.94h-1.88v-1a2.79,2.79,0,0,1-2.43,1.25,4.24,4.24,0,0,1,0-8.46,2.85,2.85,0,0,1,2.27,1V38.09h2Zm-2-5.24a2.22,2.22,0,0,0-1.92-1.12,2.33,2.33,0,0,0,0,4.66,2.22,2.22,0,0,0,1.92-1.12Z"/><path class="e" d="M710,42.93l-.72,1.84a2.29,2.29,0,0,0-1-.19,2.13,2.13,0,0,0-1.8,1.09v5.27h-2V42.88h1.94v1.18a2.63,2.63,0,0,1,2.19-1.38A4.53,4.53,0,0,1,710,42.93Z"/><path class="e" d="M718.38,46.88c0,.15,0,.46,0,.76h-6a2.28,2.28,0,0,0,2.26,1.63,3.26,3.26,0,0,0,2.21-.81l1,1.53a5.16,5.16,0,0,1-3.23,1.15,4.23,4.23,0,0,1-4.33-4.23,4.05,4.05,0,1,1,8.1,0Zm-2-.72a2,2,0,0,0-4,0Z"/><path class="e" d="M647.61,63.28v1.06a2.94,2.94,0,0,1,2.44-1.26,4.24,4.24,0,0,1,0,8.46,2.87,2.87,0,0,1-2.28-1v4.74h-2v-12Zm.16,5.24a2.24,2.24,0,0,0,1.92,1.12,2.33,2.33,0,0,0,0-4.66,2.24,2.24,0,0,0-1.92,1.13Z"/><path class="e" d="M663.53,67.31a4.31,4.31,0,1,1-4.3-4.23A4.24,4.24,0,0,1,663.53,67.31Zm-2.08,0a2.23,2.23,0,1,0-2.22,2.33A2.2,2.2,0,0,0,661.45,67.31Z"/><path class="e" d="M665,68.5V63.28h2v4.66c0,1.19.56,1.7,1.6,1.7a2,2,0,0,0,1.6-1V63.28h2v8.06h-1.91V70.17A2.91,2.91,0,0,1,665,68.5Z"/><path class="e" d="M679.86,63.33l-.71,1.84a2.35,2.35,0,0,0-1-.19,2.13,2.13,0,0,0-1.8,1.09v5.27h-2V63.28h1.94v1.18a2.61,2.61,0,0,1,2.19-1.38A4.43,4.43,0,0,1,679.86,63.33Z"/><path class="e" d="M686.54,68.6A3.79,3.79,0,0,0,689,69.76c.83,0,1.52-.24,1.52-.73s-.37-.63-1.59-.89c-1.6-.34-3-1-3-2.55,0-1.25,1.26-2.51,3.47-2.51a5.15,5.15,0,0,1,3,1l-1,1.49a3.75,3.75,0,0,0-2-.7c-.76,0-1.46.28-1.46.77s.54.61,1.9.9c1.6.34,2.74.87,2.74,2.53,0,1.38-1.46,2.48-3.52,2.48a5,5,0,0,1-3.64-1.46Z"/><path class="e" d="M702.18,67.31a4.3,4.3,0,1,1-4.3-4.23A4.23,4.23,0,0,1,702.18,67.31Zm-2.07,0a2.23,2.23,0,1,0-2.23,2.33A2.21,2.21,0,0,0,700.11,67.31Z"/><path class="e" d="M711,66.12v5.22h-2V66.63A1.49,1.49,0,0,0,707.32,65a2,2,0,0,0-1.6,1v5.32h-2V63.28h1.9v1.18A2.8,2.8,0,0,1,708,63.08,2.88,2.88,0,0,1,711,66.12Z"/><path class="e" d="M636.85,83.68v1.06a2.93,2.93,0,0,1,2.43-1.26,4.24,4.24,0,0,1,0,8.46,2.86,2.86,0,0,1-2.27-1v4.74h-2v-12Zm.16,5.24A2.22,2.22,0,0,0,638.93,90a2.33,2.33,0,0,0,0-4.66A2.22,2.22,0,0,0,637,86.5Z"/><path class="e" d="M650.23,83.73l-.71,1.84a2.35,2.35,0,0,0-1-.19,2.13,2.13,0,0,0-1.8,1.09v5.27h-2V83.68h1.94v1.18a2.61,2.61,0,0,1,2.19-1.38A4.43,4.43,0,0,1,650.23,83.73Z"/><path class="e" d="M659.07,87.71a4.3,4.3,0,1,1-4.3-4.23A4.23,4.23,0,0,1,659.07,87.71Zm-2.07,0A2.23,2.23,0,1,0,654.77,90,2.21,2.21,0,0,0,657,87.71Z"/><path class="e" d="M662.45,83.68v1.06a2.94,2.94,0,0,1,2.44-1.26,4.24,4.24,0,0,1,0,8.46,2.87,2.87,0,0,1-2.28-1v4.74h-2v-12Zm.16,5.24A2.24,2.24,0,0,0,664.53,90a2.33,2.33,0,0,0,0-4.66,2.24,2.24,0,0,0-1.92,1.12Z"/><path class="e" d="M675.83,83.73l-.71,1.84a2.29,2.29,0,0,0-1-.19,2.13,2.13,0,0,0-1.8,1.09v5.27h-2V83.68h1.94v1.18a2.61,2.61,0,0,1,2.19-1.38A4.43,4.43,0,0,1,675.83,83.73Z"/><path class="e" d="M684.18,87.68c0,.15,0,.46,0,.76h-6a2.28,2.28,0,0,0,2.26,1.63,3.26,3.26,0,0,0,2.21-.81l1,1.53a5.19,5.19,0,0,1-3.23,1.15,4.24,4.24,0,0,1-4.34-4.23,4.06,4.06,0,1,1,8.11,0Zm-2-.72a1.87,1.87,0,0,0-2-1.63,1.85,1.85,0,0,0-2,1.63Z"/><path class="e" d="M690.91,78.89h2v5.64a2.88,2.88,0,0,1,2.28-1,4.24,4.24,0,0,1,0,8.46,2.79,2.79,0,0,1-2.43-1.25v1h-1.89Zm2,10A2.24,2.24,0,0,0,694.87,90a2.33,2.33,0,0,0,0-4.66A2.24,2.24,0,0,0,693,86.5Z"/><path class="e" d="M702,79.74a1.35,1.35,0,1,1-1.35,1.34A1.33,1.33,0,0,1,702,79.74Zm-1,3.94h2v8.06h-2Z"/><path class="e" d="M712.94,87.68c0,.15,0,.46,0,.76h-6a2.29,2.29,0,0,0,2.26,1.63,3.26,3.26,0,0,0,2.21-.81l1,1.53a5.19,5.19,0,0,1-3.23,1.15,4.24,4.24,0,0,1-4.34-4.23,4.06,4.06,0,1,1,8.11,0Zm-2-.72a2,2,0,0,0-4,0Z"/><path class="e" d="M721.71,86.52v5.22h-2V87a1.49,1.49,0,0,0-1.59-1.65,2,2,0,0,0-1.6,1v5.32h-2V83.68h1.9v1.18a2.8,2.8,0,0,1,2.42-1.38A2.88,2.88,0,0,1,721.71,86.52Z"/><path class="e" d="M635,113.45l1.34,1.36a4.34,4.34,0,0,1-3.33,1.53,4.23,4.23,0,1,1,0-8.46,4.33,4.33,0,0,1,3.3,1.49l-1.41,1.26a2.53,2.53,0,0,0-1.89-.85,2.33,2.33,0,0,0,0,4.66A2.37,2.37,0,0,0,635,113.45Z"/><path class="e" d="M645.19,112.08c0,.15,0,.46,0,.76h-6a2.28,2.28,0,0,0,2.26,1.63,3.26,3.26,0,0,0,2.21-.81l1,1.53a5.19,5.19,0,0,1-3.23,1.15,4.24,4.24,0,0,1-4.34-4.23,4.06,4.06,0,1,1,8.11,0Zm-2-.72a2,2,0,0,0-4,0Z"/><path class="e" d="M646.93,103.29h2v12.85h-2Z"/><path class="e" d="M651.24,113.3v-5.22h2v4.66c0,1.19.57,1.7,1.6,1.7a2,2,0,0,0,1.6-1v-5.37h2v8.06h-1.9V115a2.91,2.91,0,0,1-5.38-1.67Z"/><path class="e" d="M661.9,104.14a1.34,1.34,0,1,1-1.34,1.34A1.34,1.34,0,0,1,661.9,104.14Zm-1,3.94h2v8.06h-2Z"/><path class="e" d="M678,116.14H676.1v-1a2.79,2.79,0,0,1-2.43,1.25,4.24,4.24,0,0,1,0-8.46,2.85,2.85,0,0,1,2.27,1.05v-5.64h2Zm-2-5.23a2.22,2.22,0,0,0-1.92-1.13,2.33,2.33,0,0,0,0,4.66,2.22,2.22,0,0,0,1.92-1.12Z"/><path class="e" d="M679.92,104.24h1.8v4.18h-1.8Z"/><path class="e" d="M690.49,110.89v5.25h-1.88v-1a3.26,3.26,0,0,1-2.65,1.22,2.72,2.72,0,0,1-2.91-2.7,2.89,2.89,0,0,1,3.16-2.67,3.94,3.94,0,0,1,2.25.58v-.46c0-1-1-1.39-1.74-1.39a6.57,6.57,0,0,0-2.41.59l-.66-1.68a8.12,8.12,0,0,1,3.17-.73C689.14,107.88,690.49,109.05,690.49,110.89Zm-2,2.82v-.83a4.11,4.11,0,0,0-1.84-.41c-.63,0-1.5.27-1.5,1.14s.84,1,1.47,1A2.4,2.4,0,0,0,688.46,113.71Z"/><path class="e" d="M692.54,113.3v-5.22h2v4.66c0,1.19.56,1.7,1.59,1.7a2,2,0,0,0,1.6-1v-5.37h2v8.06h-1.9V115a2.91,2.91,0,0,1-5.37-1.67Z"/><path class="e" d="M701.21,108.08h1.58v-2.39h2v2.39h2.43v1.84h-2.43v3.25c0,1,.51,1.27,1,1.27a1.61,1.61,0,0,0,.85-.29l.75,1.67a3.73,3.73,0,0,1-1.94.52,2.7,2.7,0,0,1-2.75-2.85v-3.57h-1.58Z"/><path class="e" d="M714.45,108.13l-.72,1.84a2.29,2.29,0,0,0-1-.19,2.13,2.13,0,0,0-1.8,1.09v5.27h-2v-8.06h1.94v1.18a2.63,2.63,0,0,1,2.19-1.38A4.53,4.53,0,0,1,714.45,108.13Z"/><path class="e" d="M715.5,113.3v-5.22h2v4.66c0,1.19.56,1.7,1.6,1.7a2,2,0,0,0,1.6-1v-5.37h2v8.06h-1.91V115a2.91,2.91,0,0,1-5.37-1.67Z"/><path class="e" d="M726.16,104.14a1.34,1.34,0,1,1-1.34,1.34A1.33,1.33,0,0,1,726.16,104.14Zm-1,3.94h2v8.06h-2Z"/><line class="f" x1="608.84" y1="11.11" x2="608.84" y2="145.42"/><rect class="d" x="608.84" y="0.51" width="139.01" height="151.83"/><path class="g" d="M184.12,60.32,193,74.05l8.89-13.73h4.33v27.3h-4.68V69.29l-8.54,13-8.54-13V87.62h-4.69V60.32Z"/><path class="g" d="M226.14,75.57V87.62h-4.33V85.28a7.48,7.48,0,0,1-6.08,2.81c-3.47,0-6.67-2.26-6.67-6.2,0-3.55,3.24-6.12,7.25-6.12a9,9,0,0,1,5.15,1.32V76c0-2.42-2.34-3.2-4-3.2A15,15,0,0,0,212,74.2l-1.53-3.86a18.85,18.85,0,0,1,7.3-1.67C223,68.67,226.14,71.36,226.14,75.57ZM221.46,82V80.13a9.41,9.41,0,0,0-4.21-.93c-1.44,0-3.43.62-3.43,2.61s1.91,2.38,3.35,2.38A5.47,5.47,0,0,0,221.46,82Z"/><path class="g" d="M231.28,69.13,236,79.2l4.69-10.07h5l-9.79,19.43-9.79-19.43Z"/><path class="g" d="M267.86,60.32h4.68V79c0,5.73-3.55,9-9.32,9a9.57,9.57,0,0,1-8-4.56l3.43-2.89s1.72,3,4.57,3c3.58,0,4.64-2.34,4.64-4.44Z"/><path class="g" d="M292.09,75.57V87.62h-4.33V85.28a7.48,7.48,0,0,1-6.08,2.81c-3.47,0-6.67-2.26-6.67-6.2,0-3.55,3.23-6.12,7.25-6.12a9,9,0,0,1,5.15,1.32V76c0-2.42-2.34-3.2-4-3.2a15.07,15.07,0,0,0-5.54,1.36l-1.52-3.86a18.85,18.85,0,0,1,7.3-1.67C289,68.67,292.09,71.36,292.09,75.57ZM287.41,82V80.13a9.41,9.41,0,0,0-4.21-.93c-1.44,0-3.43.62-3.43,2.61s1.91,2.38,3.35,2.38A5.47,5.47,0,0,0,287.41,82Z"/><path class="g" d="M297.22,69.13,301.9,79.2l4.68-10.07h5l-9.79,19.43L292,69.13Z"/><path class="c" d="M332.6,76.23c-4-1.4-8.55-3.58-8.55-8.66,0-3.86,3.44-7.72,8.94-7.72a11.74,11.74,0,0,1,8.89,4.33l-3.24,3.2S336.38,64.3,333,64.3c-2.34,0-4.18,1.44-4.18,3.27,0,2.38,2.15,3.13,5.89,4.53,4.17,1.56,7.65,3.43,7.65,8.38s-4.37,7.61-9.52,7.61a11.91,11.91,0,0,1-10-5.58l3.51-3s2.34,4.09,6.47,4.09c2.34,0,4.76-.93,4.76-3.16S335.83,77.36,332.6,76.23Z"/><path class="c" d="M363.42,78.38a9.87,9.87,0,1,1-9.87-9.71A9.72,9.72,0,0,1,363.42,78.38Zm-4.76,0a5.11,5.11,0,1,0-5.11,5.34A5.06,5.06,0,0,0,358.66,78.38Z"/><path class="c" d="M365.38,81.11v-12h4.68V79.82c0,2.73,1.29,3.9,3.67,3.9a4.53,4.53,0,0,0,3.66-2.26V69.13h4.68V87.62h-4.36V84.93a6.67,6.67,0,0,1-12.33-3.82Z"/><path class="c" d="M383.5,69.13h3.63V63.64h4.68v5.49h5.58v4.22h-5.58V80.8c0,2.26,1.17,2.92,2.42,2.92a3.73,3.73,0,0,0,1.95-.66l1.72,3.82a8.44,8.44,0,0,1-4.45,1.21,6.19,6.19,0,0,1-6.32-6.55V73.35H383.5Z"/><path class="c" d="M402.14,60.09a3.08,3.08,0,1,1-3.08,3.08A3.06,3.06,0,0,1,402.14,60.09Zm-2.34,9h4.68V87.62H399.8Z"/><path class="c" d="M425.32,78.3c0,.35,0,1,0,1.76h-13.8a5.28,5.28,0,0,0,5.19,3.74,7.46,7.46,0,0,0,5.07-1.87l2.34,3.51a11.86,11.86,0,0,1-7.41,2.65,9.72,9.72,0,0,1-9.95-9.71c0-5.42,3.94-9.71,9.28-9.71A9.3,9.3,0,0,1,425.32,78.3Zm-4.68-1.64c-.07-1.6-1.56-3.74-4.64-3.74a4.24,4.24,0,0,0-4.52,3.74Z"/><path class="c" d="M444.11,75.65v12h-4.68V76.82c0-2.65-1.63-3.79-3.66-3.79a4.57,4.57,0,0,0-3.67,2.38V87.62h-4.68V69.13h4.37v2.7a6.39,6.39,0,0,1,5.54-3.16A6.61,6.61,0,0,1,444.11,75.65Z"/><path class="c" d="M467.36,76.23c-4-1.4-8.54-3.58-8.54-8.66,0-3.86,3.43-7.72,8.93-7.72a11.74,11.74,0,0,1,8.89,4.33l-3.24,3.2s-2.26-3.08-5.65-3.08c-2.34,0-4.18,1.44-4.18,3.27,0,2.38,2.15,3.13,5.89,4.53,4.18,1.56,7.65,3.43,7.65,8.38s-4.37,7.61-9.52,7.61a11.93,11.93,0,0,1-10-5.58l3.51-3s2.34,4.09,6.47,4.09c2.34,0,4.76-.93,4.76-3.16S470.59,77.36,467.36,76.23Z"/><path class="c" d="M493,81.46,496,84.58a10,10,0,0,1-7.65,3.51,9.71,9.71,0,1,1,0-19.42A9.91,9.91,0,0,1,496,72.1L492.71,75a5.74,5.74,0,0,0-4.33-2,5.35,5.35,0,0,0,0,10.69A5.48,5.48,0,0,0,493,81.46Z"/><path class="c" d="M515.64,78.38a9.87,9.87,0,1,1-9.87-9.71A9.72,9.72,0,0,1,515.64,78.38Zm-4.76,0a5.11,5.11,0,1,0-5.11,5.34A5.06,5.06,0,0,0,510.88,78.38Z"/><path class="c" d="M518,58.14h4.68V87.62H518Z"/><path class="c" d="M542.22,75.57V87.62h-4.33V85.28a7.48,7.48,0,0,1-6.08,2.81c-3.47,0-6.67-2.26-6.67-6.2,0-3.55,3.23-6.12,7.25-6.12a9,9,0,0,1,5.15,1.32V76c0-2.42-2.34-3.2-4-3.2A15.07,15.07,0,0,0,528,74.2l-1.52-3.86a18.85,18.85,0,0,1,7.3-1.67C539.1,68.67,542.22,71.36,542.22,75.57ZM537.54,82V80.13a9.41,9.41,0,0,0-4.21-.93c-1.44,0-3.43.62-3.43,2.61s1.91,2.38,3.35,2.38A5.47,5.47,0,0,0,537.54,82Z"/><path class="c" d="M548,60.09a3.08,3.08,0,1,1-3.08,3.08A3.06,3.06,0,0,1,548,60.09Zm-2.34,9h4.69V87.62h-4.69Z"/><path class="c" d="M566.58,69.25,565,73.46a5.39,5.39,0,0,0-2.23-.43,4.89,4.89,0,0,0-4.13,2.5V87.62h-4.68V69.13h4.44v2.7a6,6,0,0,1,5-3.16A10.11,10.11,0,0,1,566.58,69.25Z"/><path class="c" d="M584.25,78.3c0,.35,0,1,0,1.76H570.4a5.3,5.3,0,0,0,5.19,3.74,7.43,7.43,0,0,0,5.07-1.87L583,85.44a11.83,11.83,0,0,1-7.41,2.65,9.72,9.72,0,0,1-9.94-9.71c0-5.42,3.94-9.71,9.28-9.71A9.3,9.3,0,0,1,584.25,78.3Zm-4.68-1.64c-.08-1.6-1.56-3.74-4.64-3.74a4.26,4.26,0,0,0-4.53,3.74Z"/><rect class="d" x="152.36" y="0.51" width="456.48" height="151.83"/></svg>